<?xml version="1.0" encoding="UTF-8"?><svg xmlns="http://www.w3.org/2000/svg" height="267.48pt" version="1.1" viewBox="0 0 425.2 267.48" width="425.2pt">
 <g id="surface1">
  <g id="change1_1"><path d="m360.77 89.969l-0.04-0.02s-60.76-2.414-82.33-8.133c-11.29-2.988-21.93-7.496-31.45-14.281-7.82-5.574-15.95-11.605-25.72-13.012-8.76-1.261-16.02 3.438-23.72 6.719-11.29 4.813-23.04 6.996-34.84 2.34-8.69-3.437-16.19-10.129-24.87-11.848-0.09 0.043-0.2 0.09-0.32 0.141-0.04 0.266-1.22 0.504-1.46 0.445-1.25 1.168-2.35 2.364-3.4 3.606v33.5c-1.3 8.347-4.47 16.284-5.96 24.784-1.31 7.51-1.6 15.43-1.6 23.41 0 9.08 0.1 14.6 8.57 18.37l0.1 4.77s89.25 39.69 225.13 7.21c27.05-3.61 47.46-19.76 47.46-39.14 0-18.94-19.45-34.771-45.55-38.861" fill="#fff"/></g>
  <g id="change2_1"><path d="m360.77 89.969l0.57-1.391-0.04-0.019c-0.17-0.067-0.33-0.102-0.51-0.11 0 0-0.94-0.039-2.65-0.113-5.94-0.27-21.13-1.024-37.17-2.332-8.02-0.652-16.26-1.445-23.65-2.387-7.38-0.937-13.94-2.027-18.53-3.25-11.16-2.957-21.62-7.394-30.97-14.055-3.91-2.781-7.93-5.714-12.27-8.152-4.33-2.437-8.98-4.383-14.1-5.121-1.07-0.152-2.13-0.227-3.16-0.227-4.01 0-7.7 1.079-11.2 2.481-3.49 1.406-6.83 3.145-10.17 4.57-6.81 2.903-13.72 4.797-20.62 4.797-4.35-0.004-8.7-0.746-13.08-2.476-4.17-1.645-8.16-4.133-12.24-6.473-4.08-2.332-8.26-4.527-12.89-5.449-0.3-0.059-0.61-0.024-0.89 0.097-0.11 0.051-0.21 0.094-0.29 0.129-0.47 0.196-0.81 0.617-0.9 1.114l1.35 0.25-1.16-0.739c-0.07 0.114-0.15 0.282-0.19 0.489l1.35 0.25-1.16-0.739 1.01 0.641-0.69-0.981c-0.06 0.047-0.18 0.122-0.32 0.34l1.01 0.641-0.69-0.981 0.38 0.543-0.29-0.601-0.09 0.058 0.38 0.543-0.29-0.601 0.04 0.074-0.04-0.074 0.04 0.074-0.04-0.074c-0.01 0.008-0.15 0.055-0.27 0.078l-0.18 0.027-0.04 0.008h-0.01l0.01 0.32 0.01-0.32h-0.02l0.01 0.32 0.01-0.32v0.965l0.19-0.945c-0.12-0.024-0.16-0.02-0.19-0.02v0.965l0.19-0.945c-0.48-0.094-0.97 0.043-1.32 0.379-1.3 1.211-2.45 2.453-3.52 3.734-0.23 0.269-0.36 0.609-0.36 0.965v33.5h1.5l-1.48-0.235c-1.26 8.129-4.42 16.059-5.96 24.769-1.33 7.64-1.61 15.64-1.62 23.66 0 2.27 0.01 4.35 0.15 6.29 0.23 2.89 0.77 5.5 2.22 7.8 1.44 2.31 3.74 4.17 7.09 5.65l0.61-1.37-1.5 0.03 0.1 4.77c0.01 0.59 0.36 1.1 0.89 1.34 0.14 0.07 45.28 20.11 120.2 20.12 30.66 0 66.31-3.36 105.89-12.82l-0.35-1.46 0.19 1.48c13.77-1.83 25.89-6.85 34.63-13.97 4.37-3.56 7.91-7.66 10.35-12.15s3.79-9.39 3.79-14.5c0-4.99-1.28-9.78-3.62-14.19-3.5-6.61-9.34-12.36-16.77-16.855-7.43-4.492-16.46-7.738-26.42-9.301l-0.24 1.485 0.57-1.391-0.57 1.391-0.23 1.48c12.81 2.004 23.96 6.906 31.83 13.531 3.93 3.31 7.05 7.05 9.18 11.07 2.13 4.01 3.27 8.3 3.27 12.78 0 4.58-1.2 8.97-3.43 13.07-3.34 6.15-9.01 11.64-16.38 15.91-7.36 4.28-16.39 7.34-26.35 8.67l-0.15 0.03c-39.34 9.4-74.75 12.73-105.19 12.74-37.19 0-66.97-4.98-87.44-9.95-10.23-2.49-18.13-4.97-23.47-6.83-2.67-0.93-4.7-1.7-6.05-2.24-0.68-0.27-1.19-0.48-1.53-0.62-0.17-0.08-0.29-0.13-0.37-0.17l-0.12-0.05-0.61 1.37 1.5-0.03-0.1-4.77c-0.01-0.58-0.36-1.1-0.89-1.34-2-0.89-3.42-1.85-4.46-2.88-0.78-0.77-1.36-1.59-1.8-2.51-0.66-1.36-1.03-2.97-1.21-4.9-0.2-1.92-0.21-4.16-0.21-6.71 0-7.95 0.29-15.78 1.58-23.15 1.45-8.3 4.61-16.243 5.97-24.814l0.01-0.23v-33.5h-1.5l1.15 0.965c1.02-1.207 2.08-2.356 3.28-3.477l-1.03-1.094-0.29 1.469c0.16 0.031 0.27 0.035 0.4 0.039 0.23-0.004 0.41-0.027 0.61-0.058 0.3-0.051 0.6-0.122 0.92-0.247 0.17-0.062 0.34-0.132 0.56-0.277 0.1-0.074 0.23-0.172 0.37-0.332s0.3-0.406 0.37-0.769l-1.48-0.27 0.58 1.383c0.15-0.063 0.27-0.117 0.35-0.149l-0.61-1.375-0.29 1.469c4.06 0.801 7.97 2.809 11.98 5.113 4.01 2.293 8.12 4.872 12.63 6.661 4.74 1.871 9.49 2.683 14.18 2.683 7.46-0.004 14.75-2.039 21.8-5.039 3.48-1.484 6.8-3.215 10.11-4.543 3.32-1.332 6.61-2.266 10.08-2.266 0.9 0 1.8 0.063 2.73 0.196 4.64 0.668 8.93 2.441 13.06 4.765 4.13 2.321 8.08 5.188 12 7.981 9.7 6.91 20.52 11.488 31.94 14.512 5.53 1.464 13.4 2.687 22.17 3.722 26.28 3.102 60.46 4.457 60.48 4.461l0.06-1.5-0.57 1.387 0.04 0.019c0.1 0.04 0.23 0.075 0.34 0.094l0.23-1.48" fill="#231f1f"/></g>
  <g id="change1_2"><path d="m405.54 122.32c-3.54 19.43-20.93 35.38-43.71 40.1l-0.07 0.07c-124.66 30.6-235.85-14.88-236.66-14.02-8.65 9.08-0.04 18.99-0.04 18.99s100.23 44.58 237.74 10.82c25.55-5.29 45.05-21.68 45.05-44.39 0-2.41-0.49-10.18-2.31-11.57" fill="#fff"/></g>
  <g id="change2_2"><path d="m405.54 122.32l-1.47-0.27c-1.71 9.36-6.76 17.91-14.19 24.73-7.42 6.81-17.22 11.86-28.36 14.17-0.29 0.06-0.57 0.21-0.77 0.43l-0.07 0.07 1.08 1.04-0.36-1.45c-31.32 7.68-61.8 10.55-89.88 10.55-41.08 0-77.03-6.14-102.97-12.28-12.96-3.06-23.43-6.13-30.78-8.43-3.68-1.16-6.58-2.11-8.64-2.79-1.02-0.34-1.84-0.61-2.45-0.79-0.31-0.1-0.57-0.17-0.79-0.23-0.11-0.02-0.21-0.05-0.32-0.07s-0.21-0.04-0.42-0.04c-0.09 0-0.2 0-0.41 0.05-0.1 0.03-0.23 0.07-0.4 0.16-0.16 0.1-0.35 0.25-0.5 0.48l1.26 0.82-1.09-1.03c-1.56 1.64-2.64 3.35-3.32 5.04-0.67 1.7-0.95 3.39-0.95 4.97 0.01 3.15 1.06 5.87 2.09 7.82 1.03 1.94 2.05 3.12 2.1 3.18 0.14 0.16 0.32 0.29 0.52 0.38 0.14 0.06 53.05 23.58 134.78 23.58 30.95 0 66.03-3.37 103.93-12.67l-0.36-1.46 0.3 1.47c13.01-2.7 24.51-8.21 32.84-16.04 8.31-7.82 13.42-18.03 13.41-29.82 0-1.3-0.12-3.87-0.49-6.38-0.18-1.26-0.42-2.5-0.76-3.58-0.17-0.55-0.37-1.05-0.62-1.52-0.25-0.46-0.55-0.91-1.03-1.28-0.41-0.32-0.96-0.4-1.45-0.21-0.48 0.19-0.84 0.62-0.93 1.13l1.47 0.27-0.91 1.2 0.04-0.06-0.04 0.05v0.01l0.04-0.06-0.04 0.05c0.01 0 0.13 0.14 0.25 0.4 0.23 0.44 0.47 1.2 0.67 2.09 0.59 2.66 0.81 6.45 0.8 7.89 0 5.46-1.17 10.52-3.31 15.14-3.2 6.93-8.61 12.9-15.6 17.62-6.98 4.73-15.53 8.21-24.95 10.16l-0.05 0.01c-37.64 9.24-72.48 12.59-103.21 12.59-40.57 0-74-5.84-97.26-11.68-11.63-2.91-20.72-5.83-26.9-8.02-3.08-1.09-5.44-2-7.02-2.63-0.8-0.32-1.39-0.57-1.79-0.74-0.2-0.08-0.35-0.14-0.44-0.19-0.1-0.04-0.14-0.06-0.14-0.06l-0.62 1.37 1.14-0.98c-0.06-0.07-0.95-1.13-1.8-2.78-0.86-1.65-1.66-3.86-1.66-6.25 0.01-1.24 0.21-2.53 0.74-3.86 0.53-1.32 1.38-2.7 2.7-4.09l0.18-0.21-1.25-0.81 0.75 1.28c0.16-0.09 0.35-0.24 0.5-0.47l-1.25-0.81 0.75 1.28-0.73-1.25 0.23 1.43c0.11-0.02 0.27-0.05 0.5-0.18l-0.73-1.25 0.23 1.43-0.21-1.32v1.34c0.04 0 0.11 0 0.21-0.02l-0.21-1.32v1.34-1.01l-0.13 1 0.13 0.01v-1.01l-0.13 1 0.05-0.43-0.06 0.43h0.01l0.05-0.43-0.06 0.43 0.09 0.02c0.24 0.05 0.77 0.22 1.51 0.45 2.78 0.9 8.55 2.86 16.77 5.3 24.66 7.31 71.53 18.87 128.14 18.87 28.28 0 59-2.89 90.59-10.64 0.28-0.07 0.53-0.22 0.73-0.42l0.07-0.07-1.08-1.04 0.3 1.47c11.64-2.41 21.93-7.7 29.78-14.9s13.27-16.33 15.11-26.4l-1.48-0.27-0.91 1.2 0.91-1.2" fill="#231f1f"/></g>
  <g id="change1_3"><path d="m132.62 89.426s25.73 9.758 19.36 67.194c-25.84-7.91-26.88-8.15-26.88-8.15s-1.84-38.12 7.52-59.044" fill="#fff"/></g>
  <g id="change2_3"><path d="m132.62 89.426l-0.53 1.402 0.14-0.383-0.14 0.379v0.004l0.14-0.383-0.14 0.379c0.1 0.043 4.91 1.961 9.72 8.926 4.81 6.97 9.67 19.04 9.68 39.56 0 5.16-0.31 10.86-1.01 17.14l1.5 0.17 0.43-1.43c-12.92-3.96-19.64-6-23.13-7.05-1.75-0.52-2.69-0.8-3.2-0.95-0.25-0.07-0.4-0.12-0.49-0.14s-0.11-0.03-0.16-0.04l-0.33 1.46 1.5-0.07-0.03-0.54c-0.04-1.06-0.12-3.65-0.12-7.25 0-6.1 0.24-15.09 1.3-24.39 1.07-9.3 2.98-18.915 6.24-26.185l-1.37-0.609-0.53 1.402 0.53-1.402-1.37-0.614c-3.46 7.754-5.38 17.598-6.48 27.068-1.08 9.46-1.32 18.55-1.32 24.73 0 4.86 0.15 7.91 0.15 7.93 0.03 0.68 0.51 1.24 1.17 1.39l0.21-0.92-0.25 0.92h0.04l0.21-0.92-0.25 0.92c0.06 0.01 0.73 0.19 4.38 1.29 3.66 1.1 10.32 3.13 22.43 6.83 0.42 0.13 0.89 0.07 1.26-0.18 0.37-0.24 0.61-0.64 0.66-1.08 0.71-6.39 1.03-12.2 1.03-17.48 0-21.32-5.16-34.13-10.46-41.619-5.29-7.492-10.67-9.593-10.87-9.668-0.75-0.285-1.58 0.063-1.91 0.789l1.37 0.614" fill="#231f1f"/></g>
  <g id="change1_4"><path d="m355.04 89.969c-7.33-0.16-14.71-1.293-22.09-1.293-8.4 0-16.49-0.598-24.81-1.789-13.55-1.946-44.5-13.625-56.96-19.934-1.09-0.484-2.14-1.058-3.13-1.715-1-0.601-1.68-1.109-1.99-1.492-1.74-1.48-3.23-3.258-4.34-5.312-0.41-0.75-0.76-1.504-1.08-2.266-0.19-0.297-0.39-0.566-0.55-0.883-1.98-3.644-3.08-6.32-6.82-8.519-8.55-5.028-15.42-5.278-23.67-3.914-7.61 2.457-15.15 7.214-18.34 13.347-3.99 7.676 5.03 14.059 10.65 17.61 5.8 3.652 12.06 6.707 18.16 9.789 12.77 6.441 26.38 11.5 40.06 15.601 18.9 5.671 38.39 10.721 58.11 12.351 10.87 0.89 28.63 6.53 34.96-5.7 2.06-3.97 4.24-11.588 1.84-15.881" fill="#fff"/></g>
  <g id="change2_4"><path d="m355.04 89.969l0.03-1.5c-7.19-0.153-14.59-1.289-22.12-1.293-8.33 0-16.34-0.59-24.59-1.778-3.27-0.464-7.7-1.543-12.66-3-7.45-2.183-16.11-5.21-24.06-8.281-7.94-3.062-15.19-6.176-19.78-8.5l-0.07-0.031c-1.02-0.457-2-0.988-2.92-1.598l-0.05-0.035c-0.47-0.281-0.85-0.535-1.13-0.742-0.27-0.207-0.44-0.379-0.47-0.414l-0.19-0.195c-1.61-1.368-2.98-3.004-3.99-4.883-0.38-0.696-0.71-1.407-1.02-2.133l-0.11-0.203c-0.23-0.375-0.41-0.617-0.5-0.809l-0.01-0.008c-0.97-1.781-1.76-3.41-2.84-4.949s-2.48-2.949-4.52-4.144c-5.99-3.532-11.36-4.84-16.81-4.832-2.58 0-5.17 0.285-7.87 0.73l-0.22 0.055c-3.94 1.269-7.85 3.129-11.23 5.492-3.37 2.363-6.23 5.234-7.98 8.59-0.79 1.512-1.16 3.047-1.16 4.527 0 1.785 0.53 3.457 1.35 4.965 1.23 2.262 3.11 4.199 5.1 5.875s4.12 3.082 5.89 4.199c5.89 3.715 12.19 6.785 18.29 9.86 12.86 6.496 26.56 11.578 40.3 15.706 18.93 5.68 38.53 10.76 58.42 12.4 2.62 0.22 5.74 0.73 9.05 1.19 3.31 0.47 6.79 0.89 10.21 0.89s6.78-0.42 9.79-1.71c3.01-1.28 5.63-3.5 7.37-6.87 1.5-2.95 3.03-7.513 3.05-11.798 0-1.941-0.32-3.851-1.24-5.508-0.26-0.464-0.75-0.757-1.28-0.765l-0.03 1.5-1.31 0.73c0.57 1.02 0.86 2.434 0.86 4.043 0.02 3.543-1.4 7.888-2.72 10.418-1.44 2.76-3.42 4.42-5.89 5.5-2.46 1.06-5.42 1.46-8.6 1.46-3.17 0-6.53-0.39-9.79-0.85-3.27-0.46-6.42-0.98-9.23-1.22-19.54-1.61-38.94-6.62-57.8-12.284-13.62-4.086-27.15-9.118-39.81-15.508-6.12-3.09-12.34-6.121-18.04-9.719-2.29-1.449-5.12-3.359-7.3-5.551-1.1-1.09-2.02-2.25-2.66-3.422-0.63-1.171-0.98-2.339-0.98-3.531 0-0.988 0.23-2.015 0.82-3.144 1.44-2.778 3.95-5.356 7.04-7.516 3.1-2.164 6.76-3.91 10.43-5.094l-0.46-1.429 0.24 1.48c2.61-0.43 5.03-0.691 7.39-0.691 4.97 0.011 9.66 1.125 15.29 4.418 1.68 1 2.69 2.027 3.59 3.289 0.89 1.261 1.65 2.793 2.66 4.652l-0.01-0.008c0.24 0.442 0.47 0.738 0.6 0.961l1.28-0.785-1.38 0.586c0.33 0.793 0.7 1.59 1.14 2.394 1.21 2.227 2.82 4.149 4.69 5.739l0.97-1.141-1.17 0.945c0.29 0.348 0.61 0.621 1 0.918 0.39 0.293 0.85 0.59 1.38 0.911l0.78-1.282-0.84 1.25c1.07 0.707 2.2 1.317 3.36 1.836l0.61-1.371-0.68 1.34c6.33 3.203 17.2 7.703 28.24 11.676 5.52 1.98 11.07 3.832 16.12 5.308 5.04 1.477 9.56 2.586 13.07 3.09 8.39 1.207 16.55 1.809 25.02 1.809 7.23-0.004 14.6 1.125 22.06 1.289l0.03-1.496-1.31 0.73 1.31-0.73" fill="#231f1f"/></g>
  <g id="change1_5"><path d="m225.81 93.645c0 4.765-3.86 8.625-8.63 8.625s-8.63-3.86-8.63-8.625c0-4.766 3.86-8.629 8.63-8.629s8.63 3.863 8.63 8.629" fill="#fff"/></g>
  <g id="change2_5"><path d="m225.81 93.645h-1.5c0 1.972-0.79 3.746-2.09 5.039-1.29 1.293-3.06 2.086-5.04 2.086-1.97 0-3.75-0.793-5.04-2.086s-2.09-3.067-2.09-5.039c0-1.973 0.8-3.747 2.09-5.043 1.29-1.293 3.07-2.086 5.04-2.086 1.98 0 3.75 0.793 5.04 2.086 1.3 1.296 2.09 3.07 2.09 5.043h3c0-5.598-4.54-10.129-10.13-10.129s-10.13 4.531-10.13 10.129c0 5.593 4.54 10.125 10.13 10.125s10.13-4.532 10.13-10.125h-1.5" fill="#231f1f"/></g>
  <g id="change1_6"><path d="m257.99 109.32c0 4.77-3.87 8.63-8.63 8.63-4.77 0-8.63-3.86-8.63-8.63s3.86-8.63 8.63-8.63c4.76 0 8.63 3.86 8.63 8.63" fill="#fff"/></g>
  <g id="change2_6"><path d="m257.99 109.32h-1.5c0 1.97-0.79 3.75-2.09 5.04-1.29 1.29-3.07 2.09-5.04 2.09s-3.75-0.8-5.04-2.09-2.09-3.07-2.09-5.04 0.8-3.75 2.09-5.04 3.07-2.08 5.04-2.09c1.97 0.01 3.75 0.8 5.04 2.09 1.3 1.29 2.09 3.07 2.09 5.04h3c0-5.59-4.54-10.125-10.13-10.129-5.59 0.004-10.13 4.539-10.13 10.129s4.54 10.13 10.13 10.13 10.13-4.54 10.13-10.13h-1.5" fill="#231f1f"/></g>
  <g id="change1_7"><path d="m290.44 115.87c0 4.77-3.87 8.63-8.63 8.63s-8.63-3.86-8.63-8.63 3.87-8.63 8.63-8.63 8.63 3.86 8.63 8.63" fill="#fff"/></g>
  <g id="change2_7"><path d="m290.44 115.87h-1.5c0 1.97-0.8 3.75-2.09 5.04-1.3 1.3-3.07 2.09-5.04 2.09s-3.75-0.79-5.04-2.09c-1.29-1.29-2.09-3.07-2.09-5.04 0-1.98 0.8-3.75 2.09-5.04s3.07-2.09 5.04-2.09c1.98 0 3.75 0.8 5.04 2.09s2.09 3.06 2.09 5.04h3c0-5.6-4.54-10.13-10.13-10.13-5.6 0-10.13 4.53-10.13 10.13 0 5.59 4.53 10.13 10.13 10.13s10.13-4.54 10.13-10.13h-1.5" fill="#231f1f"/></g>
  <g id="change1_8"><path d="m332.34 123.36c0 4.76-3.87 8.63-8.63 8.63-4.77 0-8.64-3.87-8.64-8.63 0-4.77 3.87-8.63 8.64-8.63 4.76 0 8.63 3.86 8.63 8.63" fill="#fff"/></g>
  <g id="change2_8"><path d="m332.34 123.36h-1.5c0 1.97-0.8 3.74-2.09 5.04-1.3 1.29-3.07 2.09-5.04 2.09-1.98 0-3.75-0.8-5.05-2.09-1.29-1.3-2.08-3.07-2.09-5.04 0.01-1.98 0.8-3.75 2.09-5.05 1.3-1.29 3.07-2.08 5.05-2.08 1.97 0 3.74 0.79 5.04 2.08 1.29 1.3 2.09 3.07 2.09 5.05h3c0-5.6-4.54-10.13-10.13-10.13-5.6 0-10.13 4.53-10.14 10.13 0.01 5.59 4.54 10.12 10.14 10.13 5.59 0 10.13-4.54 10.13-10.13h-1.5" fill="#231f1f"/></g>
  <g id="change1_9"><path d="m224.06 94.461c0 4.766-3.87 8.629-8.63 8.629-4.77 0-8.63-3.863-8.63-8.629 0-4.77 3.86-8.629 8.63-8.629 4.76 0 8.63 3.859 8.63 8.629" fill="#fff"/></g>
  <g id="change2_9"><path d="m224.06 94.461h-1.51c0 1.973-0.79 3.746-2.08 5.043-1.3 1.296-3.07 2.086-5.04 2.086-1.98 0-3.75-0.79-5.04-2.086-1.3-1.297-2.09-3.07-2.09-5.043s0.79-3.746 2.09-5.043c1.29-1.293 3.06-2.086 5.04-2.09 1.97 0.004 3.74 0.797 5.04 2.09 1.29 1.297 2.08 3.07 2.08 5.043h3.01c-0.01-5.598-4.54-10.129-10.13-10.133-5.6 0.004-10.13 4.535-10.13 10.133 0 5.589 4.53 10.129 10.13 10.129 5.59 0 10.12-4.54 10.13-10.129h-1.5" fill="#231f1f"/></g>
  <g id="change1_10"><path d="m256.23 110.14c0 4.76-3.86 8.63-8.62 8.63-4.77 0-8.63-3.87-8.63-8.63 0-4.77 3.86-8.63 8.63-8.63 4.76 0 8.62 3.86 8.62 8.63" fill="#fff"/></g>
  <g id="change2_10"><path d="m256.23 110.14h-1.5c0 1.97-0.79 3.75-2.08 5.04-1.3 1.3-3.07 2.09-5.04 2.09-1.98 0-3.75-0.79-5.04-2.09-1.3-1.29-2.09-3.07-2.09-5.04 0-1.98 0.79-3.75 2.08-5.04 1.3-1.3 3.07-2.09 5.05-2.09 1.97 0 3.75 0.79 5.04 2.09 1.29 1.29 2.08 3.06 2.08 5.04h3c0-5.6-4.53-10.13-10.12-10.13-5.6 0-10.13 4.53-10.13 10.13 0 5.59 4.53 10.13 10.13 10.13 5.59 0 10.12-4.54 10.12-10.13h-1.5" fill="#231f1f"/></g>
  <g id="change1_11"><path d="m288.69 116.69c0 4.77-3.87 8.63-8.63 8.63-4.77 0-8.63-3.86-8.63-8.63 0-4.76 3.86-8.63 8.63-8.63 4.76 0 8.63 3.87 8.63 8.63" fill="#fff"/></g>
  <g id="change2_11"><path d="m288.69 116.69h-1.5c-0.01 1.97-0.8 3.75-2.09 5.04-1.3 1.29-3.07 2.09-5.04 2.09-1.98 0-3.75-0.8-5.04-2.09-1.3-1.29-2.09-3.07-2.09-5.04 0-1.98 0.79-3.75 2.09-5.04 1.29-1.3 3.07-2.09 5.04-2.09s3.74 0.79 5.04 2.08c1.29 1.3 2.08 3.07 2.08 5.05h3.01c-0.01-5.59-4.54-10.13-10.13-10.13-5.6 0-10.13 4.54-10.13 10.13 0 5.6 4.53 10.13 10.13 10.13 5.59 0 10.12-4.53 10.12-10.13h-1.49" fill="#231f1f"/></g>
  <g id="change1_12"><path d="m330.59 124.18c0 4.76-3.87 8.62-8.64 8.62-4.76 0-8.63-3.86-8.63-8.62 0-4.77 3.87-8.63 8.63-8.63 4.77 0 8.64 3.86 8.64 8.63" fill="#fff"/></g>
  <g id="change2_12"><path d="m330.59 124.18h-1.5c-0.01 1.97-0.8 3.74-2.09 5.04-1.3 1.29-3.07 2.08-5.05 2.08-1.97 0-3.74-0.79-5.04-2.08-1.29-1.3-2.09-3.07-2.09-5.04 0-1.98 0.8-3.75 2.09-5.04 1.3-1.3 3.07-2.09 5.04-2.09 1.98 0 3.75 0.79 5.05 2.09 1.29 1.29 2.08 3.06 2.08 5.04h3.01c-0.01-5.6-4.54-10.13-10.14-10.13-5.59 0-10.13 4.53-10.13 10.13 0 5.59 4.54 10.12 10.13 10.12 5.6 0 10.13-4.53 10.13-10.12h-1.49" fill="#231f1f"/></g>
  <g id="change1_13"><path d="m256.9 83.199c-0.2 0.242-0.4 0.489-0.59 0.731-2.51 3.101-4.83 6.433-6.96 9.828-2.24 3.566-4.78 8.382-2.76 12.712 0.7 1.51 3.67 2.6 5.11 2.78 2.28 0.29 4.62-0.41 6.68-1.29 4.35-1.85 7.58-5.12 10.58-8.761 1.72-2.074 3.34-4.23 5.06-6.304 2.41-2.911 5.01-5.657 7.71-8.278 3.88-3.742 7.51-9.371 3.61-14.859-1.23-1.742-4.4-3.094-6.4-3.106-2.76-0.019-5.32 1.66-7.51 3.203-5.32 3.75-10.32 8.286-14.53 13.344" fill="#fff"/></g>
  <g id="change2_13"><path d="m256.9 83.199l-1.15-0.961c-0.21 0.254-0.41 0.504-0.61 0.746v0.004c-2.55 3.157-4.91 6.535-7.07 9.969-0.85 1.359-1.76 2.922-2.48 4.625-0.71 1.699-1.23 3.548-1.24 5.488 0 1.33 0.26 2.71 0.88 4.03 0.32 0.68 0.8 1.18 1.32 1.59 0.78 0.61 1.68 1.06 2.55 1.4s1.7 0.55 2.42 0.65c0.42 0.05 0.84 0.08 1.26 0.08 2.25-0.01 4.35-0.7 6.18-1.47h0.01c4.7-2.01 8.09-5.5 11.14-9.19 1.75-2.113 3.37-4.269 5.06-6.308 2.37-2.86 4.94-5.567 7.61-8.157 1.42-1.371 2.82-2.996 3.9-4.832 1.07-1.836 1.83-3.902 1.83-6.133 0.01-1.933-0.6-3.953-1.95-5.843-0.86-1.199-2.15-2.047-3.5-2.692-1.36-0.629-2.79-1.027-4.11-1.043l-0.01 1.5 0.05-1.5-0.1-0.004c-1.68 0.004-3.22 0.508-4.6 1.18-1.38 0.676-2.62 1.524-3.72 2.301-5.43 3.824-10.52 8.441-14.82 13.613v-0.004l1.15 0.961 1.16 0.961c4.12-4.953 9.01-9.402 14.24-13.082 1.07-0.754 2.18-1.508 3.31-2.055 1.12-0.546 2.22-0.875 3.28-0.875v-0.589l-0.01 0.589h0.01v-0.589l-0.01 0.589h0.01l0.04 0.004c0.68-0.007 1.84 0.278 2.86 0.762 1.04 0.473 1.96 1.172 2.33 1.711 1.01 1.437 1.39 2.773 1.39 4.105 0.01 1.528-0.53 3.098-1.42 4.618-0.89 1.515-2.12 2.957-3.4 4.191-2.74 2.652-5.37 5.438-7.83 8.399-1.74 2.109-3.37 4.265-5.06 6.308-2.95 3.574-6.01 6.644-10.01 8.344h0.01c-1.65 0.7-3.42 1.23-5.02 1.23-0.3 0-0.6-0.02-0.89-0.06-0.5-0.06-1.52-0.34-2.37-0.75-0.43-0.21-0.82-0.44-1.11-0.67-0.28-0.22-0.43-0.43-0.46-0.5v-0.01c-0.42-0.9-0.6-1.81-0.6-2.76 0-1.38 0.39-2.86 1.01-4.328 0.61-1.461 1.44-2.894 2.26-4.187 2.1-3.352 4.39-6.637 6.85-9.684v0.004c0.2-0.242 0.39-0.484 0.58-0.715h0.01l-1.16-0.961" fill="#231f1f"/></g>
  <g id="change1_14"><path d="m287.14 92.93c-0.18 0.222-0.35 0.453-0.52 0.683-2.15 2.926-4.13 6.039-5.92 9.197-1.9 3.32-4 7.78-1.96 11.55 0.71 1.31 3.47 2.12 4.8 2.21 2.09 0.13 4.2-0.62 6.05-1.53 3.89-1.9 6.69-5.02 9.27-8.44 1.48-1.96 2.87-3.98 4.35-5.94 2.08-2.742 4.33-5.351 6.68-7.848 3.38-3.578 6.45-8.82 2.64-13.523-1.21-1.492-4.15-2.523-5.98-2.426-2.53 0.137-4.8 1.785-6.72 3.289-4.71 3.664-9.07 8-12.69 12.778" fill="#fff"/></g>
  <g id="change2_14"><path d="m287.14 92.93l-1.2-0.914c-0.18 0.238-0.36 0.476-0.53 0.718v-0.007c-2.19 2.98-4.2 6.14-6.02 9.343-0.69 1.21-1.42 2.59-2 4.09-0.57 1.49-0.98 3.11-0.98 4.79-0.01 1.37 0.29 2.79 1.01 4.12v0.01c0.35 0.63 0.83 1.05 1.33 1.4 0.76 0.52 1.61 0.87 2.43 1.13 0.82 0.25 1.6 0.41 2.27 0.45 0.2 0.01 0.39 0.02 0.58 0.02 2.3-0.01 4.41-0.81 6.21-1.69h0.01c4.23-2.07 7.18-5.41 9.81-8.89 1.5-1.99 2.9-4.01 4.35-5.93 2.04-2.699 4.25-5.265 6.58-7.73 1.19-1.27 2.37-2.746 3.27-4.395 0.9-1.644 1.53-3.476 1.53-5.429 0.01-1.907-0.64-3.895-2.09-5.668-0.84-1.024-2-1.696-3.22-2.2-1.22-0.492-2.5-0.785-3.69-0.789-0.1 0-0.22 0-0.34 0.008l0.1 1.496-0.08-1.496c-1.58 0.082-2.99 0.629-4.23 1.313-1.25 0.687-2.36 1.531-3.34 2.293l0.01-0.004c-4.8 3.738-9.26 8.164-12.97 13.051v-0.004l1.2 0.914 1.19 0.906c3.53-4.664 7.81-8.914 12.42-12.496v-0.004c0.95-0.738 1.94-1.481 2.93-2.027 1-0.547 1.99-0.899 2.94-0.946l0.03-0.004h0.14c0.66-0.007 1.67 0.203 2.57 0.571 0.9 0.355 1.69 0.898 2.01 1.304 1.04 1.305 1.41 2.524 1.42 3.782 0 1.285-0.43 2.648-1.17 3.992-0.73 1.34-1.74 2.64-2.82 3.773-2.38 2.531-4.67 5.18-6.78 7.977-1.51 1.992-2.9 4.012-4.35 5.932-2.54 3.37-5.18 6.27-8.74 8.01-1.61 0.78-3.34 1.39-4.9 1.38-0.14 0-0.27 0-0.39-0.01-0.44-0.02-1.39-0.22-2.18-0.54-0.39-0.16-0.75-0.34-1.01-0.52-0.25-0.17-0.39-0.34-0.4-0.37l0.01 0.01c-0.46-0.86-0.65-1.74-0.65-2.7-0.01-1.17 0.3-2.45 0.79-3.72 0.48-1.27 1.14-2.53 1.8-3.68 1.77-3.12 3.71-6.179 5.83-9.046l0.01-0.008c0.16-0.223 0.32-0.445 0.48-0.656l0.01-0.004-1.19-0.906" fill="#231f1f"/></g>
  <g id="change1_15"><path d="m322.23 100.99c-0.11 0.25-0.21 0.51-0.32 0.76-1.31 3.24-2.42 6.64-3.34 10.04-0.98 3.58-1.88 8.3 0.9 11.54 0.97 1.13 3.73 1.37 4.98 1.19 1.98-0.28 3.76-1.42 5.27-2.66 3.17-2.59 5.05-6.15 6.64-9.96 0.91-2.17 1.73-4.4 2.64-6.58 1.29-3.05 2.77-6.015 4.37-8.886 2.29-4.11 3.92-9.774-0.73-13.575-1.48-1.199-4.46-1.621-6.14-1.171-2.32 0.621-4.04 2.664-5.48 4.492-3.51 4.453-6.55 9.496-8.79 14.81" fill="#fff"/></g>
  <g id="change2_15"><path d="m322.23 100.99l-1.39-0.58c-0.11 0.25-0.21 0.52-0.32 0.78-1.34 3.31-2.46 6.76-3.4 10.21-0.5 1.83-1.01 4.02-1.01 6.28 0 1.14 0.13 2.29 0.47 3.42 0.35 1.12 0.91 2.22 1.75 3.2 0.37 0.43 0.8 0.72 1.24 0.95 0.66 0.33 1.36 0.52 2.05 0.64 0.68 0.13 1.36 0.18 1.97 0.18 0.39 0 0.74-0.02 1.06-0.06h0.01c2.42-0.36 4.4-1.68 6.01-2.99l-0.01 0.01c1.74-1.42 3.11-3.1 4.24-4.89 1.13-1.8 2.03-3.71 2.84-5.66 0.93-2.21 1.75-4.44 2.65-6.58 1.25-2.99 2.71-5.904 4.29-8.732 1.28-2.32 2.43-5.133 2.44-8.09 0-1.301-0.24-2.633-0.81-3.898-0.56-1.27-1.47-2.461-2.72-3.485-0.79-0.629-1.7-1.019-2.66-1.289-0.95-0.261-1.95-0.394-2.89-0.394-0.68 0-1.32 0.062-1.94 0.23l0.01-0.004c-1.47 0.399-2.68 1.215-3.69 2.133s-1.85 1.953-2.58 2.879c-3.59 4.555-6.69 9.707-9 15.16l1.39 0.58 1.38 0.58c2.19-5.179 5.16-10.113 8.59-14.465 0.71-0.898 1.45-1.8 2.24-2.511 0.79-0.719 1.6-1.231 2.44-1.457h0.01c0.26-0.075 0.68-0.125 1.15-0.125 0.66 0 1.42 0.097 2.09 0.289 0.67 0.179 1.25 0.465 1.56 0.722v-0.003c0.92 0.757 1.51 1.554 1.89 2.386 0.37 0.836 0.54 1.727 0.54 2.672 0.01 2.145-0.91 4.574-2.06 6.625-1.62 2.91-3.13 5.917-4.44 9.037-0.93 2.22-1.75 4.45-2.65 6.58-0.78 1.87-1.61 3.64-2.61 5.22s-2.15 2.99-3.59 4.16v0.01c-1.41 1.16-3 2.12-4.53 2.33h0.01c-0.16 0.01-0.39 0.03-0.66 0.03-0.57 0-1.31-0.07-1.91-0.23-0.3-0.07-0.57-0.18-0.75-0.27-0.2-0.09-0.3-0.19-0.32-0.22-0.56-0.64-0.92-1.35-1.16-2.13s-0.34-1.63-0.34-2.54c0-1.8 0.43-3.76 0.9-5.49 0.92-3.36 2-6.7 3.29-9.87 0.1-0.25 0.21-0.5 0.31-0.74l-1.38-0.59" fill="#231f1f"/></g>
  <g id="change1_16"><path d="m230.09 69.418c-0.26 0.223-0.52 0.441-0.77 0.676-3.21 2.879-6.26 6.035-9.12 9.293-3 3.418-6.53 8.125-5.13 13.093 0.5 1.735 3.48 3.407 4.99 3.852 2.38 0.695 4.99 0.352 7.35-0.23 4.96-1.227 8.97-4.168 12.79-7.536 2.19-1.925 4.3-3.941 6.49-5.859 3.08-2.691 6.32-5.18 9.66-7.512 4.77-3.332 9.62-8.715 6.4-15.238-1.02-2.078-4.16-4.059-6.3-4.422-2.94-0.492-5.97 0.86-8.56 2.133-6.33 3.086-12.44 7.062-17.8 11.75" fill="#fff"/></g>
  <g id="change2_16"><path d="m230.09 69.418l-0.98-1.137c-0.27 0.227-0.53 0.457-0.8 0.703l0.01-0.007c-3.27 2.929-6.35 6.125-9.25 9.418-1.29 1.476-2.71 3.218-3.84 5.187-1.13 1.965-1.97 4.184-1.98 6.602 0 0.886 0.12 1.796 0.38 2.707 0.22 0.757 0.64 1.351 1.11 1.875 0.71 0.773 1.59 1.394 2.45 1.906 0.87 0.504 1.71 0.883 2.44 1.098l0.01 0.003c1.1 0.321 2.22 0.446 3.31 0.446 1.69 0 3.32-0.293 4.82-0.66 5.33-1.321 9.54-4.45 13.43-7.868 2.21-1.953 4.32-3.964 6.48-5.855 3.02-2.648 6.23-5.102 9.52-7.41 1.94-1.356 3.92-3.039 5.45-5.071 1.53-2.027 2.64-4.449 2.64-7.175 0-1.582-0.38-3.235-1.2-4.887l0.01 0.004c-0.71-1.406-1.91-2.524-3.24-3.434-1.33-0.898-2.77-1.562-4.15-1.808h-0.01c-0.51-0.086-1.02-0.125-1.53-0.125-2.99 0.015-5.69 1.297-7.94 2.39v-0.004c-6.44 3.145-12.66 7.192-18.13 11.969l0.01-0.004 0.98 1.137 0.98 1.129c5.26-4.59 11.26-8.5 17.48-11.531v-0.004c2.18-1.082 4.55-2.098 6.62-2.082 0.35 0 0.69 0.027 1.03 0.086 0.76 0.117 1.95 0.625 2.98 1.328 1.03 0.691 1.91 1.601 2.22 2.273l0.01 0.004c0.63 1.281 0.88 2.449 0.88 3.559 0 1.89-0.77 3.687-2.03 5.371-1.26 1.676-3.01 3.187-4.77 4.414-3.38 2.359-6.67 4.879-9.79 7.613-2.22 1.949-4.33 3.965-6.49 5.863-3.77 3.321-7.57 6.075-12.16 7.204-1.36 0.335-2.77 0.574-4.1 0.574-0.86 0-1.7-0.102-2.47-0.328v0.004c-0.53-0.153-1.59-0.641-2.44-1.239-0.43-0.297-0.81-0.621-1.09-0.918-0.27-0.293-0.41-0.558-0.43-0.668-0.18-0.636-0.26-1.261-0.26-1.886-0.01-1.696 0.6-3.43 1.57-5.114 0.96-1.679 2.26-3.285 3.5-4.691 2.83-3.227 5.84-6.34 8.99-9.168l0.01-0.012c0.24-0.215 0.48-0.426 0.74-0.648v-0.004l-0.98-1.129" fill="#231f1f"/></g>
  <g id="change1_17"><path d="m258.52 83.918c-0.2 0.238-0.4 0.488-0.59 0.73-2.51 3.102-4.83 6.426-6.96 9.829-2.24 3.562-4.78 8.383-2.76 12.713 0.7 1.51 3.68 2.6 5.11 2.78 2.28 0.29 4.62-0.42 6.68-1.29 4.36-1.85 7.58-5.13 10.58-8.758 1.72-2.078 3.34-4.234 5.06-6.309 2.41-2.91 5.01-5.656 7.72-8.273 3.87-3.746 7.5-9.375 3.6-14.863-1.23-1.743-4.39-3.094-6.4-3.106-2.76-0.023-5.32 1.66-7.5 3.203-5.33 3.75-10.33 8.278-14.54 13.344" fill="#fff"/></g>
  <g id="change2_17"><path d="m258.52 83.918l-1.14-0.969c-0.22 0.262-0.43 0.52-0.62 0.754v0.004c-2.55 3.156-4.9 6.531-7.06 9.969-0.86 1.355-1.77 2.918-2.49 4.621-0.71 1.699-1.24 3.543-1.24 5.483 0 1.34 0.26 2.72 0.88 4.04 0.32 0.68 0.81 1.18 1.32 1.59 0.78 0.61 1.68 1.05 2.55 1.39s1.71 0.56 2.42 0.66h-0.01c0.43 0.05 0.85 0.08 1.27 0.08 2.25-0.01 4.36-0.71 6.19-1.48 4.7-2 8.1-5.49 11.15-9.18 1.74-2.114 3.37-4.271 5.05-6.31 2.37-2.859 4.94-5.566 7.61-8.156 1.42-1.375 2.82-2.996 3.9-4.832s1.83-3.906 1.83-6.133c0.01-1.933-0.59-3.957-1.94-5.844-0.87-1.199-2.15-2.046-3.51-2.691-1.36-0.629-2.79-1.027-4.11-1.043l-0.01 1.5 0.04-1.5-0.1-0.004c-1.68 0.004-3.22 0.512-4.59 1.184-1.38 0.672-2.62 1.519-3.72 2.297h0.01c-5.43 3.824-10.53 8.433-14.83 13.613l1.15 0.957-1.14-0.969 1.14 0.969 1.16 0.961c4.12-4.957 9.02-9.402 14.24-13.078l0.01-0.004c1.06-0.754 2.18-1.508 3.29-2.055 1.12-0.547 2.22-0.875 3.28-0.875v-0.547l-0.02 0.547h0.02v-0.547l-0.02 0.547h0.07c0.68-0.004 1.84 0.281 2.86 0.766 1.04 0.472 1.96 1.172 2.33 1.711 1.01 1.437 1.39 2.773 1.39 4.105 0.01 1.528-0.53 3.098-1.42 4.613-0.89 1.516-2.12 2.961-3.4 4.2-2.73 2.648-5.37 5.433-7.83 8.394-1.74 2.11-3.37 4.266-5.06 6.309-2.95 3.575-6.01 6.645-10 8.335-1.65 0.7-3.42 1.24-5.02 1.24-0.3 0-0.6-0.02-0.88-0.06-0.5-0.05-1.53-0.34-2.38-0.76-0.43-0.2-0.82-0.44-1.1-0.66-0.29-0.22-0.44-0.44-0.47-0.51-0.42-0.9-0.6-1.81-0.6-2.77 0-1.38 0.39-2.86 1.01-4.319 0.61-1.465 1.44-2.895 2.25-4.188l0.01-0.003c2.1-3.356 4.39-6.633 6.85-9.676 0.21-0.25 0.4-0.492 0.58-0.703l0.01-0.012-1.16-0.961" fill="#231f1f"/></g>
  <g id="change1_18"><path d="m288.76 93.645c-0.17 0.234-0.35 0.457-0.52 0.691-2.15 2.918-4.13 6.024-5.92 9.184-1.89 3.33-4 7.79-1.96 11.55 0.71 1.32 3.48 2.13 4.8 2.22 2.09 0.13 4.2-0.63 6.05-1.53 3.9-1.9 6.7-5.02 9.28-8.45 1.47-1.96 2.87-3.97 4.34-5.93 2.08-2.743 4.33-5.353 6.69-7.849 3.37-3.578 6.44-8.82 2.63-13.523-1.2-1.492-4.15-2.528-5.98-2.43-2.53 0.141-4.79 1.789-6.72 3.297-4.71 3.66-9.07 7.996-12.69 12.77" fill="#fff"/></g>
  <g id="change2_18"><path d="m288.76 93.645l-1.21-0.891c-0.16 0.219-0.34 0.445-0.52 0.695l0.01-0.008c-2.2 2.977-4.2 6.137-6.02 9.349-0.7 1.21-1.43 2.59-2 4.09-0.57 1.49-0.99 3.1-0.99 4.78-0.01 1.37 0.29 2.79 1.01 4.13 0.35 0.63 0.83 1.06 1.33 1.41 0.76 0.52 1.61 0.87 2.43 1.13 0.82 0.25 1.6 0.41 2.27 0.45 0.2 0.01 0.39 0.02 0.58 0.02 2.3-0.01 4.41-0.82 6.22-1.69 4.23-2.07 7.19-5.41 9.82-8.9 1.5-1.99 2.89-4 4.34-5.93 2.04-2.69 4.25-5.257 6.58-7.721 1.19-1.27 2.37-2.747 3.27-4.395 0.9-1.644 1.53-3.476 1.53-5.43 0.01-1.906-0.64-3.894-2.09-5.672-0.84-1.015-2-1.695-3.21-2.199-1.23-0.492-2.51-0.789-3.7-0.793-0.1 0-0.21 0.004-0.34 0.012l0.1 1.496-0.08-1.5c-1.57 0.09-2.98 0.637-4.23 1.32-1.25 0.692-2.36 1.532-3.34 2.293h0.01c-4.8 3.735-9.26 8.161-12.97 13.047l-0.01 0.016 1.21 0.891 1.19 0.91c3.54-4.664 7.81-8.914 12.42-12.496v-0.004c0.95-0.739 1.94-1.481 2.93-2.028 1-0.55 1.99-0.898 2.95-0.953h0.02l0.14-0.004c0.65-0.004 1.67 0.203 2.57 0.575 0.9 0.359 1.7 0.902 2.01 1.308 1.05 1.309 1.41 2.524 1.42 3.781 0 1.286-0.43 2.653-1.16 3.993-0.73 1.339-1.75 2.64-2.82 3.773-2.39 2.531-4.68 5.18-6.79 7.97h-0.01c-1.5 2-2.89 4.01-4.34 5.94-2.54 3.37-5.18 6.27-8.74 8-1.61 0.79-3.35 1.4-4.9 1.39-0.13 0-0.27 0-0.39-0.01-0.44-0.02-1.39-0.22-2.17-0.54-0.4-0.16-0.76-0.35-1.01-0.52-0.26-0.18-0.39-0.34-0.4-0.37-0.46-0.86-0.65-1.74-0.65-2.7-0.01-1.16 0.3-2.44 0.79-3.71 0.48-1.27 1.15-2.54 1.8-3.68 1.77-3.12 3.72-6.184 5.83-9.043v-0.008c0.16-0.215 0.33-0.438 0.51-0.68l-1.2-0.894 1.19 0.91-1.19-0.91" fill="#231f1f"/></g>
  <g id="change1_19"><path d="m323.85 101.7c-0.11 0.26-0.21 0.51-0.32 0.77-1.31 3.24-2.42 6.64-3.34 10.04-0.98 3.58-1.88 8.29 0.9 11.53 0.97 1.14 3.73 1.38 4.98 1.2 1.98-0.28 3.77-1.43 5.27-2.65 3.18-2.61 5.05-6.16 6.64-9.97 0.91-2.18 1.73-4.41 2.64-6.58 1.29-3.06 2.77-6.02 4.37-8.888 2.3-4.117 3.92-9.773-0.73-13.574-1.47-1.199-4.46-1.629-6.14-1.176-2.32 0.625-4.04 2.66-5.48 4.489-3.51 4.461-6.54 9.496-8.79 14.809" fill="#fff"/></g>
  <g id="change2_19"><path d="m323.85 101.7l-1.39-0.58c-0.1 0.27-0.21 0.53-0.32 0.79-1.34 3.3-2.46 6.75-3.4 10.2-0.5 1.84-1.01 4.03-1.01 6.29 0 1.13 0.13 2.29 0.47 3.41 0.35 1.13 0.91 2.23 1.75 3.21v-0.01c0.37 0.43 0.8 0.72 1.24 0.95 0.66 0.34 1.36 0.53 2.05 0.65 0.69 0.13 1.37 0.18 1.97 0.18 0.39 0 0.74-0.02 1.06-0.06h0.02c2.42-0.36 4.4-1.68 6-2.98 3.48-2.86 5.45-6.68 7.07-10.55 0.93-2.22 1.75-4.45 2.65-6.58 1.26-3 2.71-5.91 4.29-8.733v-0.004c1.29-2.321 2.43-5.133 2.44-8.086 0-1.305-0.23-2.633-0.8-3.902-0.57-1.266-1.48-2.457-2.73-3.481-0.78-0.629-1.7-1.019-2.66-1.289-0.96-0.266-1.95-0.398-2.9-0.398-0.67 0-1.31 0.062-1.93 0.226h0.01c-1.47 0.399-2.68 1.219-3.69 2.133-1.01 0.918-1.84 1.949-2.58 2.879-3.58 4.558-6.69 9.703-8.99 15.155h-0.01l1.39 0.58 1.38 0.59c2.19-5.188 5.16-10.114 8.59-14.47 0.71-0.898 1.45-1.8 2.24-2.511 0.79-0.719 1.6-1.231 2.45-1.457l0.01-0.004c0.25-0.071 0.67-0.121 1.13-0.121 0.66 0 1.42 0.097 2.1 0.289 0.67 0.183 1.26 0.468 1.57 0.726l-0.01-0.004c0.93 0.758 1.51 1.555 1.89 2.387 0.37 0.836 0.54 1.723 0.54 2.672 0.01 2.141-0.9 4.57-2.06 6.629v-0.004c-1.62 2.91-3.13 5.918-4.44 9.038-0.93 2.22-1.75 4.44-2.64 6.58-1.56 3.74-3.34 7.03-6.21 9.39v-0.01c-1.41 1.16-3 2.13-4.53 2.33h0.02c-0.17 0.02-0.4 0.04-0.67 0.04-0.57 0-1.31-0.07-1.91-0.23-0.3-0.08-0.56-0.18-0.75-0.27-0.19-0.1-0.3-0.19-0.32-0.22v-0.01c-0.55-0.64-0.92-1.34-1.16-2.12-0.23-0.78-0.34-1.64-0.34-2.54 0-1.8 0.43-3.76 0.9-5.5 0.92-3.35 2.01-6.69 3.29-9.86 0.1-0.25 0.21-0.5 0.31-0.75l-1.38-0.59" fill="#231f1f"/></g>
  <g id="change1_20"><path d="m231.71 70.129c-0.26 0.226-0.51 0.449-0.76 0.676-3.22 2.886-6.26 6.043-9.13 9.297-3 3.421-6.53 8.128-5.12 13.093 0.49 1.739 3.48 3.41 4.98 3.852 2.38 0.699 5 0.351 7.35-0.227 4.96-1.23 8.97-4.172 12.79-7.535 2.2-1.918 4.3-3.945 6.49-5.867 3.08-2.684 6.32-5.168 9.66-7.504 4.77-3.328 9.62-8.715 6.4-15.242-1.01-2.074-4.16-4.055-6.3-4.418-2.94-0.5-5.96 0.859-8.55 2.133-6.34 3.086-12.45 7.062-17.81 11.742" fill="#fff"/></g>
  <g id="change2_20"><path d="m231.71 70.129l-0.99-1.129c-0.26 0.23-0.52 0.457-0.77 0.688-3.27 2.937-6.36 6.132-9.25 9.421-1.3 1.477-2.72 3.219-3.85 5.188-1.12 1.965-1.97 4.183-1.97 6.598 0 0.886 0.12 1.796 0.37 2.71 0.22 0.754 0.64 1.352 1.11 1.875 0.72 0.774 1.59 1.399 2.46 1.907 0.86 0.504 1.71 0.883 2.44 1.097 1.1 0.325 2.22 0.45 3.32 0.45 1.68 0 3.31-0.293 4.81-0.657v-0.004c5.33-1.324 9.54-4.453 13.43-7.863 2.22-1.945 4.32-3.976 6.48-5.863v0.004c3.02-2.645 6.23-5.098 9.53-7.406 1.94-1.356 3.91-3.04 5.45-5.071 1.52-2.027 2.63-4.453 2.63-7.179 0-1.583-0.37-3.235-1.19-4.887-0.71-1.403-1.91-2.52-3.24-3.43-1.33-0.894-2.77-1.558-4.15-1.805-0.52-0.085-1.04-0.128-1.54-0.125-2.99 0.012-5.69 1.297-7.94 2.391l0.01-0.004c-6.45 3.145-12.67 7.192-18.14 11.961l0.99 1.133 0.99 1.129c5.25-4.582 11.25-8.492 17.47-11.524l0.01-0.004c2.18-1.082 4.53-2.097 6.61-2.082 0.35 0 0.69 0.028 1.03 0.082 0.76 0.122 1.96 0.629 2.98 1.332 1.04 0.692 1.91 1.602 2.23 2.27 0.63 1.281 0.88 2.453 0.88 3.563 0 1.894-0.76 3.691-2.03 5.371-1.26 1.679-3.01 3.191-4.77 4.418-3.38 2.359-6.66 4.878-9.79 7.605-2.22 1.953-4.33 3.981-6.48 5.867-3.78 3.317-7.58 6.071-12.17 7.207-1.35 0.332-2.76 0.571-4.09 0.571-0.87 0-1.7-0.098-2.48-0.329-0.53-0.152-1.59-0.636-2.44-1.23-0.43-0.297-0.81-0.621-1.08-0.918-0.28-0.297-0.41-0.559-0.44-0.672-0.18-0.637-0.26-1.262-0.26-1.89 0-1.688 0.6-3.422 1.57-5.11 0.96-1.68 2.26-3.285 3.5-4.695 2.83-3.219 5.84-6.328 9-9.168 0.25-0.223 0.5-0.442 0.75-0.664l-0.99-1.129" fill="#231f1f"/></g>
  <g id="change1_21"><path d="m256.88 124.39l-0.04-0.02s-60.77-2.41-82.34-8.13c-11.28-2.99-21.93-7.5-31.45-14.29-7.82-5.567-15.95-11.598-25.71-13.005-8.77-1.261-16.03 3.434-23.731 6.715-11.281 4.81-23.035 7-34.832 2.34-8.687-3.434-16.191-10.129-24.871-11.848-0.094 0.043-0.199 0.094-0.316 0.141-0.051 0.269-1.227 0.508-1.461 0.445-1.25 1.168-2.356 2.364-3.402 3.606v33.496c-1.309 8.36-4.469 16.29-5.961 24.8-1.313 7.5-1.598 15.42-1.598 23.4 0 9.08 0.102 14.6 8.562 18.37l0.102 4.77s89.248 39.68 225.13 7.21c27.06-3.61 47.47-19.75 47.47-39.14 0-18.93-19.46-34.77-45.55-38.86" fill="#fff"/></g>
  <g id="change2_21"><path d="m256.88 124.39l0.57-1.39-0.05-0.02c-0.16-0.07-0.33-0.1-0.51-0.11 0 0-0.94-0.04-2.64-0.11-5.95-0.28-21.14-1.03-37.18-2.33-8.02-0.66-16.25-1.45-23.64-2.39s-13.95-2.03-18.54-3.25c-11.15-2.95-21.62-7.4-30.97-14.06-3.9-2.777-7.93-5.714-12.26-8.152-4.33-2.437-8.98-4.379-14.11-5.117-1.07-0.156-2.12-0.231-3.16-0.227-4.01 0-7.69 1.075-11.19 2.481-3.505 1.406-6.837 3.144-10.18 4.566-6.805 2.903-13.715 4.797-20.618 4.797-4.347 0-8.699-0.746-13.074-2.473-4.172-1.644-8.168-4.132-12.246-6.472-4.078-2.336-8.258-4.531-12.887-5.449-0.316-0.063-0.636-0.024-0.925 0.113l-0.25 0.109c-0.473 0.196-0.817 0.614-0.907 1.117l1.352 0.247-1.16-0.739c-0.075 0.117-0.153 0.281-0.192 0.492l1.352 0.247-1.16-0.739 1.007 0.645-0.691-0.985c-0.059 0.047-0.172 0.121-0.316 0.34l1.007 0.645-0.691-0.985 0.387 0.547-0.293-0.601-0.094 0.054 0.387 0.547-0.293-0.601 0.031 0.062-0.027-0.062h-0.004l0.031 0.062-0.027-0.062c-0.016 0.008-0.157 0.051-0.281 0.078l-0.168 0.027-0.047 0.004h-0.004l0.011 0.34v-0.34h-0.011l0.011 0.34v-0.34 0.969l0.192-0.945c-0.117-0.024-0.156-0.024-0.192-0.024v0.969l0.192-0.945c-0.473-0.098-0.969 0.042-1.32 0.375-1.301 1.214-2.45 2.457-3.524 3.734-0.226 0.269-0.351 0.613-0.351 0.965v33.496h1.5l-1.485-0.23c-1.262 8.13-4.418 16.07-5.953 24.77-1.336 7.64-1.621 15.64-1.621 23.66 0 2.27 0.004 4.35 0.152 6.28 0.219 2.89 0.766 5.51 2.211 7.81 1.442 2.31 3.739 4.17 7.09 5.65l0.609-1.37-1.5 0.04 0.102 4.76c0.012 0.59 0.356 1.11 0.891 1.34 0.14 0.06 45.281 20.11 120.21 20.11 30.66 0 66.3-3.36 105.88-12.81l-0.35-1.46 0.2 1.49c13.77-1.84 25.88-6.86 34.63-13.98 4.37-3.56 7.9-7.65 10.34-12.15 2.45-4.49 3.8-9.39 3.8-14.5 0-4.99-1.29-9.79-3.63-14.19-3.5-6.61-9.34-12.36-16.77-16.85-7.43-4.5-16.46-7.74-26.42-9.3l-0.23 1.48 0.57-1.39-0.57 1.39-0.24 1.48c12.81 2.01 23.96 6.9 31.83 13.53 3.94 3.31 7.06 7.05 9.18 11.07 2.13 4.01 3.28 8.3 3.28 12.78 0 4.58-1.2 8.97-3.43 13.07-3.34 6.14-9.02 11.64-16.39 15.91-7.35 4.28-16.38 7.34-26.35 8.67l-0.15 0.03c-39.34 9.4-74.74 12.73-105.18 12.73-37.2 0-66.977-4.97-87.442-9.95-10.234-2.48-18.136-4.96-23.472-6.82-2.672-0.93-4.7-1.7-6.051-2.24-0.68-0.27-1.188-0.48-1.527-0.63-0.168-0.07-0.297-0.12-0.379-0.16l-0.118-0.05-0.609 1.37 1.5-0.03-0.102-4.77c-0.011-0.58-0.355-1.1-0.886-1.34-1.996-0.89-3.426-1.84-4.465-2.88-0.781-0.77-1.352-1.59-1.793-2.51-0.664-1.36-1.027-2.97-1.219-4.9-0.191-1.93-0.199-4.16-0.199-6.71 0-7.95 0.285-15.78 1.574-23.15 1.449-8.3 4.613-16.24 5.965-24.82l0.02-0.23v-33.496h-1.5l1.148 0.965c1.016-1.204 2.078-2.352 3.277-3.473l-1.023-1.098-0.297 1.473c0.168 0.031 0.273 0.035 0.398 0.035 0.235 0 0.415-0.023 0.614-0.058 0.297-0.051 0.601-0.122 0.926-0.243 0.164-0.066 0.335-0.136 0.55-0.281 0.11-0.074 0.235-0.168 0.375-0.328 0.133-0.16 0.301-0.406 0.367-0.774l-1.472-0.269 0.566 1.391c0.149-0.063 0.278-0.122 0.383-0.172l-0.633-1.36-0.293 1.473c4.055 0.797 7.965 2.809 11.981 5.109 4.011 2.297 8.113 4.871 12.629 6.661 4.738 1.875 9.488 2.685 14.179 2.685 7.457 0 14.754-2.04 21.797-5.041 3.481-1.484 6.801-3.211 10.111-4.543 3.32-1.332 6.62-2.266 10.08-2.266 0.9 0.004 1.81 0.067 2.73 0.2 4.64 0.668 8.94 2.441 13.07 4.765 4.13 2.321 8.08 5.185 11.99 7.985 9.7 6.91 20.52 11.49 31.94 14.51 5.53 1.46 13.4 2.69 22.17 3.72 26.28 3.1 60.46 4.46 60.48 4.46l0.07-1.5-0.57 1.39 0.04 0.01c0.1 0.05 0.23 0.08 0.33 0.1l0.24-1.48" fill="#231f1f"/></g>
  <g id="change1_22"><path d="m301.64 156.74c-3.53 19.43-20.93 35.38-43.71 40.1l-0.07 0.07c-124.66 30.61-235.84-14.87-236.66-14.02-8.649 9.08-0.032 18.99-0.032 18.99s100.22 44.58 237.73 10.82c25.55-5.29 45.05-21.68 45.05-44.39 0-2.41-0.49-10.18-2.31-11.57" fill="#fff"/></g>
  <g id="change2_22"><path d="m301.64 156.74l-1.47-0.27c-1.71 9.35-6.75 17.92-14.18 24.73-7.43 6.82-17.23 11.87-28.36 14.17-0.3 0.06-0.57 0.21-0.78 0.43l-0.07 0.07 1.08 1.04-0.36-1.46c-31.32 7.69-61.8 10.57-89.89 10.57-41.08 0-77.028-6.14-102.96-12.29-12.97-3.07-23.431-6.13-30.787-8.44-3.675-1.15-6.574-2.11-8.633-2.78-1.027-0.34-1.843-0.6-2.453-0.79-0.308-0.1-0.562-0.17-0.781-0.22-0.109-0.03-0.215-0.06-0.32-0.08-0.114-0.02-0.215-0.04-0.426-0.04-0.09 0-0.199 0-0.402 0.05-0.098 0.02-0.223 0.06-0.379 0.15-0.157 0.08-0.348 0.23-0.504 0.46l1.238 0.85-1.09-1.03c-1.562 1.64-2.64 3.34-3.316 5.05-0.676 1.7-0.949 3.38-0.949 4.96 0.004 3.15 1.058 5.87 2.086 7.81 1.031 1.94 2.05 3.12 2.101 3.19 0.145 0.16 0.324 0.29 0.524 0.38 0.129 0.06 53.046 23.58 134.78 23.59 30.95 0 66.02-3.38 103.92-12.68l-0.36-1.46 0.31 1.47c13-2.7 24.51-8.21 32.83-16.05 8.32-7.81 13.42-18.02 13.41-29.81 0-1.29-0.12-3.86-0.49-6.38-0.18-1.26-0.42-2.5-0.76-3.58-0.17-0.55-0.36-1.05-0.61-1.52-0.25-0.46-0.55-0.9-1.03-1.28-0.42-0.32-0.97-0.39-1.45-0.21-0.49 0.19-0.84 0.62-0.94 1.13l1.47 0.27-0.91 1.19 0.04-0.04-0.04 0.04 0.04-0.04-0.04 0.04c0.01 0 0.13 0.14 0.25 0.4 0.23 0.44 0.48 1.21 0.67 2.09 0.6 2.66 0.81 6.44 0.8 7.89 0 5.46-1.16 10.52-3.3 15.14-3.21 6.93-8.62 12.89-15.6 17.62-6.99 4.73-15.54 8.21-24.95 10.16l-0.06 0.01c-37.64 9.24-72.47 12.6-103.2 12.6-40.58 0-74-5.85-97.262-11.69-11.633-2.92-20.723-5.83-26.898-8.02-3.09-1.09-5.446-2-7.028-2.63-0.793-0.32-1.39-0.57-1.789-0.73-0.199-0.09-0.347-0.15-0.445-0.2-0.098-0.04-0.141-0.06-0.141-0.06l-0.609 1.37 1.133-0.98h-0.004c-0.059-0.07-0.945-1.13-1.797-2.78-0.855-1.64-1.656-3.86-1.652-6.25 0-1.24 0.207-2.53 0.738-3.85 0.527-1.33 1.375-2.7 2.699-4.09l0.153-0.19-1.219-0.84 0.73 1.29c0.149-0.08 0.336-0.23 0.489-0.45l-1.219-0.84 0.73 1.29-0.715-1.26 0.231 1.43c0.105-0.02 0.258-0.05 0.484-0.17l-0.715-1.26 0.231 1.43-0.215-1.32v1.34c0.047 0 0.113 0 0.215-0.02l-0.215-1.32v1.34-1.02l-0.125 1.01 0.125 0.01v-1.02l-0.125 1.01 0.055-0.43-0.071 0.43h0.016l0.055-0.43-0.071 0.43h0.02c0.144 0.03 0.641 0.17 1.324 0.39 2.609 0.83 8.27 2.78 16.434 5.2 24.504 7.31 71.663 19.05 128.72 19.06 28.29-0.01 59.01-2.9 90.61-10.65 0.28-0.07 0.53-0.21 0.72-0.42l0.08-0.07-1.09-1.04 0.3 1.47c11.65-2.41 21.93-7.7 29.79-14.9 7.84-7.2 13.27-16.33 15.1-26.4l-1.48-0.27-0.91 1.19 0.91-1.19" fill="#231f1f"/></g>
  <g id="change1_23"><path d="m28.727 123.84s25.73 9.76 19.355 67.2c-25.84-7.91-26.879-8.15-26.879-8.15s-1.84-38.12 7.524-59.05" fill="#fff"/></g>
  <g id="change2_23"><path d="m28.727 123.84l-0.532 1.41 0.145-0.39-0.152 0.39h0.007l0.145-0.39-0.152 0.39c0.101 0.04 4.91 1.96 9.726 8.92 4.813 6.97 9.676 19.04 9.68 39.56 0 5.17-0.309 10.86-1.004 17.15l1.492 0.16 0.438-1.43c-12.922-3.96-19.641-6-23.137-7.05-1.746-0.52-2.688-0.8-3.195-0.95-0.254-0.07-0.403-0.11-0.489-0.14-0.09-0.02-0.113-0.03-0.164-0.04l-0.332 1.46 1.496-0.07s-0.008-0.18-0.023-0.53c-0.039-1.07-0.121-3.66-0.121-7.25 0-6.1 0.234-15.09 1.304-24.4 1.063-9.29 2.977-18.91 6.235-26.18l-1.367-0.62-0.532 1.41 0.532-1.41-1.372-0.61c-3.464 7.76-5.386 17.6-6.476 27.07-1.086 9.47-1.324 18.56-1.324 24.74 0 4.85 0.148 7.91 0.148 7.92 0.031 0.67 0.508 1.24 1.164 1.39l0.215-0.94-0.246 0.93 0.031 0.01 0.215-0.94-0.246 0.93c0.051 0.02 0.723 0.2 4.375 1.3 3.656 1.11 10.32 3.13 22.43 6.84 0.425 0.13 0.89 0.06 1.261-0.19 0.375-0.24 0.621-0.64 0.668-1.08 0.707-6.39 1.024-12.19 1.024-17.48 0.004-21.32-5.16-34.13-10.457-41.62s-10.672-9.59-10.879-9.67c-0.746-0.28-1.574 0.06-1.903 0.79l1.372 0.61" fill="#231f1f"/></g>
  <g id="change1_24"><path d="m251.14 124.39c-7.33-0.16-14.7-1.29-22.08-1.29-8.4 0-16.5-0.6-24.81-1.8-13.56-1.94-44.51-13.62-56.96-19.92-1.1-0.49-2.15-1.06-3.14-1.724-1-0.601-1.68-1.105-1.99-1.488-1.74-1.484-3.23-3.262-4.34-5.313-0.41-0.746-0.75-1.503-1.08-2.265-0.18-0.293-0.38-0.57-0.55-0.887-1.98-3.641-3.08-6.32-6.81-8.519-8.56-5.024-15.42-5.274-23.68-3.911-7.602 2.454-15.149 7.211-18.337 13.344-3.992 7.676 5.032 14.063 10.657 17.613 5.79 3.65 12.05 6.7 18.16 9.79 12.76 6.44 26.37 11.5 40.05 15.61 18.9 5.66 38.4 10.71 58.11 12.34 10.88 0.89 28.63 6.53 34.97-5.7 2.05-3.97 4.24-11.59 1.83-15.88" fill="#fff"/></g>
  <g id="change2_24"><path d="m251.14 124.39l0.04-1.5c-7.2-0.16-14.59-1.29-22.12-1.3-8.33 0-16.35-0.59-24.6-1.77-3.26-0.47-7.69-1.55-12.66-3-7.44-2.18-16.1-5.21-24.05-8.28-7.95-3.06-15.2-6.18-19.79-8.5l-0.07-0.03c-1.02-0.459-1.99-0.99-2.91-1.6l-0.05-0.035c-0.47-0.285-0.86-0.539-1.13-0.746-0.28-0.203-0.45-0.375-0.48-0.41l-0.19-0.196c-1.61-1.371-2.97-3.003-3.99-4.882v-0.004c-0.37-0.684-0.7-1.399-1.02-2.137l-0.11-0.207c-0.22-0.352-0.39-0.594-0.5-0.797v-0.008c-0.98-1.785-1.76-3.41-2.85-4.953-1.07-1.535-2.48-2.949-4.52-4.144-5.99-3.532-11.36-4.836-16.8-4.829-2.59 0-5.18 0.282-7.88 0.731l-0.22 0.055c-3.93 1.269-7.842 3.129-11.224 5.488-3.375 2.363-6.235 5.234-7.985 8.59-0.789 1.512-1.16 3.051-1.156 4.531-0.004 1.785 0.527 3.457 1.344 4.965 1.234 2.258 3.109 4.198 5.105 5.878 1.996 1.67 4.125 3.08 5.895 4.2 5.891 3.71 12.191 6.78 18.281 9.86 12.86 6.49 26.56 11.58 40.3 15.7 18.94 5.68 38.54 10.76 58.42 12.4 2.62 0.22 5.74 0.73 9.05 1.2 3.31 0.46 6.8 0.88 10.21 0.88 3.43 0 6.79-0.42 9.79-1.71 3.01-1.28 5.63-3.51 7.37-6.87 1.5-2.94 3.04-7.51 3.06-11.8-0.01-1.94-0.33-3.85-1.25-5.5-0.25-0.47-0.74-0.76-1.27-0.77l-0.04 1.5-1.3 0.73c0.57 1.02 0.86 2.43 0.86 4.04 0.01 3.54-1.41 7.9-2.73 10.42-1.43 2.76-3.42 4.42-5.88 5.49s-5.43 1.47-8.61 1.47c-3.16 0-6.53-0.4-9.79-0.85-3.26-0.46-6.42-0.99-9.23-1.22-19.53-1.61-38.94-6.63-57.8-12.28-13.61-4.09-27.15-9.12-39.8-15.51-6.13-3.09-12.34-6.13-18.04-9.72-2.297-1.44-5.125-3.36-7.308-5.55-1.094-1.09-2.02-2.25-2.657-3.422-0.636-1.172-0.98-2.34-0.98-3.531 0-0.988 0.234-2.016 0.82-3.145 1.438-2.781 3.946-5.355 7.043-7.515 3.09-2.164 6.752-3.91 10.422-5.098l-0.46-1.426 0.25 1.481c2.6-0.434 5.03-0.692 7.39-0.692 4.97 0.008 9.66 1.126 15.28 4.415 1.69 1 2.7 2.027 3.59 3.293 0.9 1.257 1.65 2.792 2.66 4.652v-0.008c0.23 0.43 0.45 0.734 0.6 0.973l1.27-0.797-1.38 0.586c0.34 0.785 0.7 1.594 1.14 2.398v-0.004c1.21 2.227 2.82 4.149 4.69 5.739l0.97-1.141-1.16 0.945c0.29 0.348 0.61 0.621 1 0.917 0.39 0.29 0.84 0.59 1.37 0.91l0.78-1.284-0.83 1.254c1.07 0.71 2.19 1.32 3.35 1.84l0.62-1.37-0.68 1.33c6.33 3.2 17.2 7.7 28.24 11.68 5.51 1.98 11.07 3.83 16.11 5.31s9.56 2.59 13.08 3.09c8.38 1.2 16.55 1.81 25.02 1.8 7.22 0 14.59 1.13 22.05 1.3l0.03-1.5-1.3 0.73 1.3-0.73" fill="#231f1f"/></g>
  <g id="change1_25"><path d="m121.91 128.07c0 4.76-3.86 8.63-8.62 8.63-4.77 0-8.64-3.87-8.64-8.63 0-4.77 3.87-8.63 8.64-8.63 4.76 0 8.62 3.86 8.62 8.63" fill="#fff"/></g>
  <g id="change2_25"><path d="m121.91 128.07h-1.5c0 1.97-0.79 3.74-2.09 5.04-1.29 1.29-3.06 2.09-5.03 2.09-1.98 0-3.75-0.8-5.05-2.09-1.29-1.3-2.08-3.07-2.09-5.04 0.01-1.98 0.8-3.75 2.09-5.05 1.3-1.29 3.07-2.08 5.05-2.08 1.97 0 3.74 0.79 5.03 2.08 1.3 1.3 2.09 3.07 2.09 5.05h3c0-5.6-4.53-10.13-10.12-10.13-5.6 0-10.13 4.53-10.14 10.13 0.01 5.59 4.54 10.13 10.14 10.13 5.59 0 10.12-4.54 10.12-10.13h-1.5" fill="#231f1f"/></g>
  <g id="change1_26"><path d="m154.09 143.74c0 4.77-3.86 8.63-8.63 8.63-4.76 0-8.62-3.86-8.62-8.63 0-4.76 3.86-8.63 8.62-8.63 4.77 0 8.63 3.87 8.63 8.63" fill="#fff"/></g>
  <g id="change2_26"><path d="m154.09 143.74h-1.5c0 1.97-0.79 3.75-2.09 5.04-1.29 1.29-3.06 2.09-5.04 2.09-1.97 0-3.75-0.8-5.04-2.09s-2.08-3.07-2.08-5.04 0.79-3.74 2.08-5.04c1.29-1.29 3.07-2.09 5.04-2.09 1.98 0 3.75 0.8 5.04 2.09 1.3 1.3 2.09 3.07 2.09 5.04h3c0-5.6-4.53-10.13-10.13-10.13-5.59 0-10.12 4.53-10.12 10.13s4.53 10.13 10.12 10.13c5.6 0 10.13-4.53 10.13-10.13h-1.5" fill="#231f1f"/></g>
  <g id="change1_27"><path d="m186.54 150.29c0 4.76-3.86 8.63-8.63 8.63-4.76 0-8.62-3.87-8.62-8.63 0-4.77 3.86-8.63 8.62-8.63 4.77 0 8.63 3.86 8.63 8.63" fill="#fff"/></g>
  <g id="change2_27"><path d="m186.54 150.29h-1.5c0 1.98-0.79 3.75-2.09 5.04-1.29 1.29-3.06 2.09-5.04 2.09-1.97 0-3.74-0.8-5.04-2.09-1.29-1.29-2.08-3.06-2.08-5.04 0-1.97 0.79-3.75 2.08-5.04 1.3-1.29 3.07-2.09 5.04-2.09 1.98 0 3.75 0.8 5.05 2.09 1.29 1.29 2.08 3.07 2.08 5.04h3c0-5.59-4.53-10.13-10.13-10.13-5.59 0-10.12 4.54-10.12 10.13s4.53 10.13 10.12 10.13c5.6 0 10.13-4.54 10.13-10.13h-1.5" fill="#231f1f"/></g>
  <g id="change1_28"><path d="m228.44 157.78c0 4.76-3.87 8.63-8.63 8.63s-8.63-3.87-8.63-8.63c0-4.77 3.87-8.64 8.63-8.64s8.63 3.87 8.63 8.64" fill="#fff"/></g>
  <g id="change2_28"><path d="m228.44 157.78h-1.5c0 1.97-0.8 3.74-2.09 5.04-1.3 1.29-3.07 2.09-5.04 2.09s-3.75-0.8-5.04-2.09c-1.29-1.3-2.09-3.07-2.09-5.04 0-1.98 0.8-3.75 2.09-5.05 1.29-1.29 3.07-2.08 5.04-2.09 1.98 0.01 3.74 0.8 5.04 2.09 1.29 1.3 2.09 3.07 2.09 5.05h3c0-5.6-4.53-10.13-10.13-10.14-5.6 0.01-10.13 4.54-10.13 10.14 0 5.59 4.53 10.13 10.13 10.13s10.13-4.54 10.13-10.13h-1.5" fill="#231f1f"/></g>
  <g id="change1_29"><path d="m120.16 128.88c0 4.76-3.86 8.64-8.63 8.64-4.76 0-8.63-3.88-8.63-8.64 0-4.77 3.87-8.63 8.63-8.63 4.77 0 8.63 3.86 8.63 8.63" fill="#fff"/></g>
  <g id="change2_29"><path d="m120.16 128.88h-1.5c0 1.98-0.8 3.75-2.09 5.04-1.29 1.3-3.07 2.09-5.04 2.1-1.97-0.01-3.74-0.8-5.04-2.1-1.29-1.29-2.09-3.07-2.09-5.04s0.8-3.75 2.09-5.04c1.3-1.29 3.07-2.09 5.04-2.09s3.75 0.8 5.04 2.09 2.09 3.07 2.09 5.04h3c0-5.59-4.54-10.13-10.13-10.13s-10.13 4.54-10.13 10.13c0 5.6 4.54 10.13 10.13 10.13 5.6 0 10.13-4.54 10.13-10.13h-1.5" fill="#231f1f"/></g>
  <g id="change1_30"><path d="m152.34 144.56c0 4.76-3.86 8.63-8.63 8.63-4.76 0-8.63-3.87-8.63-8.63 0-4.77 3.87-8.63 8.63-8.63 4.77 0 8.63 3.86 8.63 8.63" fill="#fff"/></g>
  <g id="change2_30"><path d="m152.34 144.56h-1.5c0 1.97-0.79 3.74-2.09 5.04-1.29 1.29-3.07 2.09-5.04 2.09s-3.75-0.8-5.04-2.09c-1.29-1.3-2.09-3.07-2.09-5.04s0.8-3.75 2.09-5.04 3.07-2.09 5.04-2.09 3.75 0.8 5.04 2.09c1.3 1.29 2.09 3.07 2.09 5.04h3c0-5.6-4.54-10.13-10.13-10.13s-10.13 4.53-10.13 10.13c0 5.59 4.53 10.13 10.13 10.13 5.59 0 10.13-4.54 10.13-10.13h-1.5" fill="#231f1f"/></g>
  <g id="change1_31"><path d="m184.79 151.11c0 4.77-3.86 8.63-8.63 8.63s-8.63-3.86-8.63-8.63 3.86-8.63 8.63-8.63 8.63 3.86 8.63 8.63" fill="#fff"/></g>
  <g id="change2_31"><path d="m184.79 151.11h-1.5c0 1.97-0.79 3.75-2.09 5.04-1.29 1.3-3.06 2.09-5.04 2.09-1.97 0-3.75-0.79-5.04-2.09-1.29-1.29-2.09-3.07-2.09-5.04s0.8-3.75 2.09-5.04c1.29-1.3 3.07-2.09 5.04-2.09 1.98 0 3.75 0.79 5.04 2.09 1.3 1.29 2.09 3.07 2.09 5.04h3c0-5.59-4.53-10.13-10.13-10.13-5.59 0-10.13 4.54-10.13 10.13 0 5.6 4.54 10.13 10.13 10.13 5.6 0 10.13-4.53 10.13-10.13h-1.5" fill="#231f1f"/></g>
  <g id="change1_32"><path d="m226.69 158.59c0 4.77-3.87 8.64-8.63 8.64-4.77 0-8.63-3.87-8.63-8.64 0-4.76 3.86-8.62 8.63-8.62 4.76 0 8.63 3.86 8.63 8.62" fill="#fff"/></g>
  <g id="change2_32"><path d="m226.69 158.59h-1.5c0 1.98-0.8 3.75-2.09 5.05-1.3 1.29-3.07 2.08-5.04 2.09-1.98-0.01-3.75-0.8-5.04-2.09-1.3-1.3-2.09-3.07-2.09-5.05 0-1.97 0.79-3.74 2.09-5.03 1.29-1.29 3.06-2.09 5.04-2.09 1.97 0 3.74 0.8 5.04 2.09 1.29 1.29 2.09 3.06 2.09 5.03h3c0-5.59-4.54-10.12-10.13-10.12-5.6 0-10.13 4.53-10.13 10.12 0 5.6 4.53 10.13 10.13 10.14 5.59-0.01 10.13-4.54 10.13-10.14h-1.5" fill="#231f1f"/></g>
  <g id="change1_33"><path d="m153.01 117.62c-0.2 0.24-0.4 0.49-0.6 0.73-2.51 3.1-4.83 6.43-6.96 9.83-2.24 3.57-4.77 8.38-2.76 12.71 0.7 1.51 3.67 2.6 5.12 2.78 2.27 0.29 4.61-0.41 6.67-1.28 4.36-1.85 7.58-5.13 10.58-8.77 1.72-2.08 3.34-4.23 5.06-6.3 2.41-2.91 5.01-5.66 7.72-8.28 3.87-3.75 7.5-9.38 3.6-14.86-1.23-1.74-4.39-3.09-6.39-3.11-2.77-0.02-5.33 1.66-7.51 3.2-5.33 3.76-10.32 8.29-14.53 13.35" fill="#fff"/></g>
  <g id="change2_33"><path d="m153.01 117.62l-1.15-0.96c-0.22 0.25-0.41 0.5-0.61 0.74l-0.01 0.01c-2.55 3.15-4.9 6.54-7.06 9.97-0.86 1.35-1.77 2.92-2.48 4.62-0.72 1.7-1.24 3.55-1.25 5.49 0 1.33 0.26 2.71 0.88 4.03 0.32 0.68 0.81 1.18 1.32 1.59 0.78 0.62 1.68 1.06 2.55 1.4 0.88 0.33 1.71 0.56 2.42 0.65 0.42 0.05 0.85 0.08 1.27 0.08 2.24-0.01 4.35-0.7 6.18-1.47 4.71-2.01 8.1-5.5 11.15-9.2 1.74-2.11 3.37-4.25 5.05-6.29h0.01c2.36-2.87 4.93-5.58 7.6-8.16 1.42-1.38 2.82-3 3.9-4.84 1.08-1.83 1.83-3.9 1.83-6.13 0.01-1.93-0.59-3.95-1.95-5.84-0.86-1.2-2.14-2.05-3.5-2.69-1.36-0.628-2.78-1.03-4.1-1.05l-0.01 1.5 0.04-1.5h-0.09c-1.68 0-3.23 0.51-4.61 1.18s-2.62 1.52-3.72 2.3h0.01c-5.44 3.82-10.52 8.44-14.82 13.61l1.15 0.96 1.15 0.96c4.12-4.95 9.02-9.4 14.24-13.08h0.01c1.06-0.76 2.18-1.51 3.3-2.05 1.12-0.55 2.22-0.88 3.29-0.88h0.04c0.67 0 1.83 0.28 2.86 0.77 1.03 0.47 1.95 1.17 2.32 1.71 1.01 1.43 1.39 2.77 1.39 4.1 0.01 1.53-0.52 3.1-1.42 4.62-0.89 1.51-2.12 2.96-3.4 4.19-2.73 2.65-5.37 5.44-7.83 8.41-1.74 2.1-3.37 4.25-5.06 6.29-2.95 3.59-6 6.65-10 8.34-1.65 0.71-3.41 1.24-5.01 1.24-0.31 0-0.6-0.02-0.89-0.06-0.5-0.06-1.53-0.34-2.38-0.75-0.43-0.21-0.82-0.45-1.1-0.67-0.29-0.22-0.44-0.43-0.47-0.5v-0.01c-0.42-0.9-0.59-1.8-0.6-2.76 0-1.38 0.39-2.86 1.01-4.33 0.61-1.46 1.45-2.89 2.26-4.19 2.1-3.35 4.39-6.63 6.85-9.68v0.01c0.2-0.25 0.4-0.49 0.59-0.72l-1.15-0.96" fill="#231f1f"/></g>
  <g id="change1_34"><path d="m183.24 127.35c-0.17 0.23-0.35 0.45-0.51 0.69-2.16 2.92-4.13 6.03-5.93 9.19-1.89 3.32-3.99 7.78-1.96 11.55 0.71 1.31 3.48 2.13 4.8 2.2 2.09 0.14 4.2-0.62 6.05-1.52 3.9-1.9 6.7-5.02 9.28-8.44 1.48-1.96 2.87-3.98 4.35-5.94 2.07-2.74 4.32-5.35 6.68-7.85 3.37-3.57 6.45-8.82 2.64-13.52-1.21-1.49-4.16-2.52-5.99-2.42-2.53 0.13-4.79 1.78-6.72 3.28-4.7 3.67-9.07 8.01-12.69 12.78" fill="#fff"/></g>
  <g id="change2_34"><path d="m183.24 127.35l-1.2-0.9c-0.17 0.23-0.34 0.46-0.52 0.7v-0.01c-2.2 2.98-4.2 6.15-6.02 9.35-0.69 1.21-1.43 2.59-2 4.09-0.57 1.49-0.99 3.11-0.99 4.79 0 1.37 0.29 2.79 1.01 4.12 0.35 0.63 0.83 1.06 1.34 1.41 0.75 0.52 1.6 0.87 2.42 1.13 0.83 0.26 1.6 0.41 2.27 0.45 0.2 0.02 0.4 0.02 0.58 0.02 2.3-0.01 4.41-0.82 6.22-1.69 4.23-2.07 7.19-5.41 9.81-8.89 1.51-1.99 2.9-4.01 4.35-5.93 2.04-2.7 4.26-5.26 6.58-7.73 1.2-1.27 2.37-2.75 3.27-4.4 0.9-1.64 1.53-3.47 1.53-5.43 0.01-1.9-0.64-3.89-2.09-5.66-0.84-1.02-2-1.7-3.21-2.2-1.23-0.49-2.51-0.78-3.7-0.79-0.1 0-0.21 0-0.34 0.01l0.1 1.5-0.08-1.5c-1.57 0.08-2.98 0.62-4.23 1.31s-2.35 1.53-3.33 2.29c-4.8 3.74-9.26 8.17-12.96 13.05l-0.01 0.01 1.2 0.9 1.19 0.9c3.54-4.65 7.82-8.9 12.43-12.49 0.94-0.74 1.93-1.48 2.93-2.03s1.98-0.9 2.94-0.95h0.02 0.14c0.66-0.01 1.67 0.2 2.57 0.57 0.9 0.36 1.7 0.9 2.01 1.3 1.05 1.31 1.42 2.53 1.42 3.78 0.01 1.29-0.43 2.66-1.16 4s-1.75 2.64-2.82 3.77c-2.39 2.53-4.68 5.18-6.79 7.98-1.51 1.99-2.9 4.01-4.35 5.93-2.54 3.37-5.18 6.27-8.74 8.01l0.01-0.01c-1.61 0.79-3.35 1.4-4.91 1.39-0.14 0-0.27 0-0.39-0.01h-0.01c-0.43-0.02-1.38-0.22-2.16-0.54-0.39-0.15-0.76-0.34-1.01-0.52-0.26-0.17-0.39-0.34-0.4-0.36-0.46-0.86-0.65-1.74-0.65-2.7 0-1.17 0.3-2.45 0.79-3.72s1.15-2.53 1.8-3.67c1.78-3.12 3.72-6.19 5.83-9.05h0.01c0.16-0.23 0.33-0.45 0.5-0.68h-0.01l-1.19-0.9" fill="#231f1f"/></g>
  <g id="change1_35"><path d="m218.33 135.41c-0.1 0.25-0.21 0.51-0.31 0.76-1.32 3.24-2.42 6.64-3.35 10.04-0.98 3.58-1.88 8.3 0.9 11.54 0.97 1.13 3.73 1.37 4.99 1.19 1.97-0.28 3.75-1.42 5.26-2.65 3.18-2.6 5.05-6.16 6.64-9.97 0.91-2.18 1.73-4.4 2.65-6.58 1.28-3.06 2.76-6.01 4.37-8.88 2.29-4.12 3.91-9.78-0.74-13.58-1.47-1.2-4.46-1.62-6.14-1.17-2.32 0.62-4.04 2.66-5.48 4.49-3.51 4.45-6.55 9.49-8.79 14.81" fill="#fff"/></g>
  <g id="change2_35"><path d="m218.33 135.41l-1.38-0.58c-0.11 0.26-0.22 0.53-0.32 0.78-1.35 3.31-2.47 6.76-3.41 10.21-0.5 1.83-1.01 4.02-1.01 6.29 0 1.12 0.13 2.28 0.48 3.41 0.34 1.12 0.9 2.23 1.74 3.2 0.37 0.43 0.8 0.72 1.24 0.94 0.66 0.34 1.36 0.53 2.05 0.66 0.69 0.12 1.37 0.17 1.97 0.17 0.39 0 0.74-0.02 1.07-0.06h0.01c2.42-0.36 4.4-1.68 6-2.98 1.74-1.42 3.11-3.1 4.23-4.89 1.13-1.8 2.03-3.72 2.85-5.66 0.92-2.22 1.74-4.44 2.64-6.58 1.26-2.99 2.71-5.9 4.3-8.73 1.28-2.32 2.42-5.14 2.43-8.09 0-1.3-0.23-2.63-0.8-3.9s-1.47-2.46-2.73-3.48c-0.78-0.64-1.7-1.02-2.65-1.29-0.96-0.27-1.95-0.4-2.9-0.4-0.67 0-1.32 0.07-1.93 0.23-1.47 0.39-2.68 1.22-3.69 2.13-1.01 0.92-1.84 1.95-2.57 2.88-3.59 4.55-6.7 9.71-9 15.16l1.38 0.58 1.38 0.59c2.19-5.19 5.16-10.12 8.59-14.47 0.71-0.9 1.45-1.8 2.24-2.52 0.79-0.71 1.6-1.22 2.45-1.45 0.27-0.08 0.68-0.13 1.15-0.13 0.66 0 1.42 0.1 2.09 0.29 0.68 0.18 1.26 0.47 1.57 0.72h-0.01c0.93 0.76 1.51 1.55 1.89 2.39 0.37 0.83 0.54 1.72 0.54 2.67 0.01 2.14-0.9 4.57-2.06 6.62-1.62 2.92-3.13 5.92-4.44 9.04-0.93 2.22-1.75 4.45-2.64 6.58-0.78 1.87-1.62 3.64-2.62 5.22-0.99 1.59-2.15 2.99-3.59 4.16-1.41 1.17-2.99 2.13-4.52 2.34l0.01-0.01c-0.16 0.03-0.4 0.04-0.67 0.04-0.57 0.01-1.31-0.07-1.91-0.23-0.3-0.08-0.56-0.17-0.75-0.27s-0.3-0.19-0.32-0.22c-0.55-0.64-0.92-1.35-1.16-2.13-0.23-0.78-0.34-1.64-0.34-2.53 0-1.81 0.43-3.77 0.91-5.5 0.92-3.36 2-6.7 3.29-9.87v-0.01c0.1-0.25 0.2-0.5 0.3-0.73l-1.38-0.59" fill="#231f1f"/></g>
  <g id="change1_36"><path d="m126.19 103.84c-0.26 0.22-0.51 0.45-0.76 0.67-3.21 2.88-6.26 6.04-9.12 9.3-3.01 3.42-6.54 8.13-5.13 13.09 0.49 1.73 3.48 3.41 4.98 3.85 2.38 0.7 5 0.36 7.35-0.23 4.96-1.22 8.97-4.16 12.8-7.54 2.18-1.91 4.29-3.93 6.48-5.85 3.08-2.7 6.32-5.18 9.66-7.51 4.78-3.33 9.62-8.72 6.41-15.241-1.02-2.078-4.17-4.059-6.3-4.426-2.95-0.492-5.97 0.867-8.57 2.133-6.33 3.094-12.44 7.066-17.8 11.754" fill="#fff"/></g>
  <g id="change2_36"><path d="m126.19 103.84l-0.98-1.14c-0.27 0.24-0.53 0.47-0.78 0.69h-0.01c-3.26 2.93-6.35 6.13-9.24 9.43-1.29 1.48-2.72 3.22-3.85 5.18-1.12 1.97-1.97 4.19-1.97 6.6 0 0.89 0.12 1.8 0.38 2.71 0.22 0.76 0.64 1.35 1.11 1.87 0.71 0.78 1.58 1.4 2.45 1.91 0.87 0.5 1.71 0.88 2.44 1.1 1.1 0.33 2.22 0.45 3.31 0.45 1.69 0 3.33-0.29 4.82-0.66 5.33-1.32 9.54-4.45 13.43-7.87 2.22-1.95 4.32-3.97 6.48-5.86 3.02-2.64 6.23-5.1 9.53-7.41 1.94-1.35 3.91-3.03 5.45-5.07 1.53-2.02 2.63-4.45 2.63-7.172 0-1.578-0.37-3.231-1.19-4.883v0.004c-0.7-1.41-1.91-2.528-3.24-3.438-1.33-0.894-2.77-1.558-4.15-1.804h-0.01c-0.51-0.086-1.02-0.125-1.52-0.125-2.99 0.015-5.69 1.3-7.94 2.386-6.45 3.149-12.66 7.192-18.13 11.972v-0.01l0.98 1.14 0.99 1.12c5.25-4.58 11.25-8.487 17.47-11.526 2.19-1.082 4.56-2.098 6.63-2.082 0.35 0 0.69 0.027 1.03 0.082h-0.01c0.76 0.121 1.96 0.628 2.98 1.332 1.04 0.691 1.91 1.601 2.23 2.269v0.004c0.63 1.281 0.88 2.453 0.88 3.559 0 1.892-0.76 3.692-2.03 5.372-1.26 1.67-3 3.19-4.77 4.42-3.37 2.36-6.66 4.87-9.79 7.61-2.22 1.95-4.33 3.97-6.48 5.86-3.77 3.32-7.58 6.08-12.17 7.2-1.36 0.34-2.77 0.58-4.1 0.58-0.86 0-1.69-0.1-2.46-0.33-0.54-0.15-1.59-0.64-2.45-1.24-0.43-0.29-0.81-0.62-1.08-0.91-0.27-0.3-0.41-0.56-0.44-0.67-0.18-0.63-0.26-1.26-0.26-1.89 0-1.69 0.61-3.42 1.57-5.1 0.96-1.69 2.27-3.29 3.51-4.7 2.82-3.23 5.83-6.34 8.99-9.17l-0.01 0.01c0.26-0.23 0.51-0.46 0.76-0.67v-0.01l-0.99-1.12" fill="#231f1f"/></g>
  <g id="change1_37"><path d="m154.63 118.34c-0.2 0.23-0.4 0.48-0.6 0.73-2.51 3.1-4.83 6.43-6.96 9.82-2.24 3.57-4.77 8.38-2.76 12.72 0.71 1.51 3.68 2.6 5.12 2.78 2.27 0.29 4.61-0.41 6.68-1.28 4.35-1.86 7.57-5.13 10.57-8.77 1.71-2.08 3.34-4.23 5.06-6.3 2.42-2.92 5.02-5.66 7.72-8.28 3.87-3.75 7.5-9.38 3.61-14.87-1.24-1.74-4.4-3.09-6.4-3.1-2.77-0.02-5.33 1.66-7.51 3.2-5.32 3.76-10.32 8.28-14.53 13.35" fill="#fff"/></g>
  <g id="change2_37"><path d="m154.63 118.34l-1.14-0.98c-0.23 0.27-0.43 0.53-0.62 0.76-2.56 3.16-4.91 6.54-7.07 9.98-0.85 1.35-1.77 2.92-2.48 4.62-0.72 1.7-1.24 3.55-1.24 5.49-0.01 1.33 0.26 2.7 0.87 4.03 0.32 0.68 0.81 1.17 1.32 1.59 0.78 0.61 1.68 1.06 2.55 1.4 0.88 0.33 1.71 0.56 2.42 0.65 0.42 0.05 0.85 0.08 1.26 0.08 2.25-0.01 4.36-0.71 6.19-1.47l0.01-0.01c4.7-2 8.09-5.49 11.14-9.19 1.74-2.11 3.37-4.26 5.06-6.3 2.37-2.86 4.93-5.56 7.6-8.15 1.42-1.38 2.82-3 3.9-4.84 1.08-1.83 1.83-3.9 1.84-6.13 0-1.94-0.6-3.96-1.95-5.84-0.87-1.21-2.15-2.05-3.5-2.69-1.36-0.63-2.79-1.04-4.11-1.05l-0.01 1.5 0.03-1.5h-0.09c-1.68 0-3.22 0.51-4.6 1.18s-2.62 1.52-3.72 2.3h0.01c-5.43 3.82-10.52 8.43-14.82 13.61l1.15 0.96-1.14-0.98 1.14 0.98 1.16 0.96c4.11-4.96 9.01-9.4 14.23-13.08 1.07-0.76 2.19-1.51 3.3-2.06 1.13-0.54 2.23-0.87 3.29-0.87v-0.54l-0.02 0.54h0.02v-0.54l-0.02 0.54h0.07c0.68 0 1.83 0.28 2.86 0.76s1.96 1.17 2.32 1.72c1.02 1.43 1.39 2.77 1.4 4.1 0 1.53-0.53 3.09-1.42 4.61s-2.12 2.96-3.41 4.2c-2.73 2.65-5.37 5.44-7.82 8.4-1.75 2.1-3.38 4.26-5.06 6.31-2.96 3.57-6.01 6.63-10.01 8.33-1.65 0.7-3.41 1.24-5.02 1.24-0.3 0-0.59-0.02-0.88-0.06-0.5-0.06-1.53-0.34-2.38-0.76-0.43-0.2-0.82-0.44-1.1-0.66s-0.44-0.43-0.47-0.51c-0.42-0.9-0.59-1.81-0.59-2.76-0.01-1.39 0.38-2.87 1-4.33s1.45-2.89 2.26-4.19c2.11-3.35 4.39-6.63 6.86-9.68v0.01c0.2-0.26 0.39-0.5 0.57-0.71l0.02-0.01-1.16-0.96" fill="#231f1f"/></g>
  <g id="change1_38"><path d="m184.86 128.07c-0.17 0.23-0.34 0.45-0.51 0.68-2.16 2.92-4.13 6.04-5.93 9.2-1.89 3.32-3.99 7.78-1.96 11.55 0.72 1.31 3.48 2.12 4.81 2.2 2.09 0.14 4.19-0.62 6.04-1.52 3.9-1.9 6.7-5.02 9.28-8.45 1.48-1.95 2.87-3.97 4.35-5.93 2.08-2.75 4.33-5.35 6.68-7.85 3.37-3.57 6.45-8.82 2.64-13.52-1.21-1.49-4.15-2.53-5.99-2.43-2.53 0.14-4.79 1.79-6.72 3.29-4.7 3.66-9.07 8-12.69 12.78" fill="#fff"/></g>
  <g id="change2_38"><path d="m184.86 128.07l-1.2-0.9c-0.17 0.22-0.34 0.45-0.52 0.7v-0.01c-2.2 2.98-4.2 6.15-6.02 9.35-0.69 1.21-1.42 2.59-2 4.09-0.57 1.49-0.99 3.11-0.99 4.79 0 1.37 0.29 2.79 1.01 4.12v0.01c0.35 0.62 0.84 1.05 1.34 1.4 0.76 0.52 1.61 0.87 2.43 1.13 0.82 0.25 1.59 0.41 2.26 0.45 0.2 0.01 0.39 0.02 0.58 0.02 2.3-0.01 4.42-0.83 6.22-1.7 4.23-2.06 7.19-5.4 9.82-8.89 1.5-1.98 2.89-4.01 4.34-5.92 2.04-2.7 4.26-5.26 6.58-7.73 1.2-1.27 2.38-2.75 3.27-4.39 0.9-1.65 1.54-3.48 1.54-5.43 0-1.91-0.64-3.9-2.09-5.68-0.84-1.02-2-1.69-3.22-2.19-1.23-0.5-2.5-0.79-3.69-0.8-0.1 0-0.22 0-0.36 0.01l0.11 1.5-0.08-1.5c-1.57 0.09-2.98 0.64-4.23 1.32-1.25 0.69-2.35 1.53-3.33 2.29-4.8 3.74-9.25 8.16-12.97 13.05v0.01l1.2 0.9 1.19 0.9c3.54-4.66 7.82-8.91 12.42-12.49h0.01c0.94-0.75 1.93-1.48 2.93-2.03s1.98-0.9 2.95-0.95h0.02l0.14-0.01c0.65-0.01 1.66 0.21 2.56 0.57s1.7 0.9 2.01 1.31c1.05 1.31 1.42 2.52 1.43 3.79 0 1.28-0.43 2.64-1.17 3.99-0.73 1.34-1.75 2.64-2.82 3.77-2.39 2.53-4.67 5.18-6.79 7.98-1.51 1.99-2.9 4.01-4.35 5.92-2.53 3.38-5.18 6.27-8.73 8.01-1.61 0.79-3.35 1.4-4.91 1.39-0.13 0-0.26-0.01-0.39-0.01-0.44-0.03-1.39-0.23-2.17-0.54-0.39-0.16-0.76-0.35-1.01-0.52-0.26-0.17-0.39-0.34-0.4-0.36h0.01c-0.47-0.86-0.66-1.74-0.66-2.7 0-1.18 0.31-2.45 0.8-3.72 0.48-1.27 1.14-2.53 1.8-3.67 1.77-3.13 3.71-6.2 5.82-9.06h0.01c0.15-0.21 0.33-0.44 0.51-0.68l-1.21-0.89 1.19 0.9-1.19-0.9" fill="#231f1f"/></g>
  <g id="change1_39"><path d="m219.95 136.12c-0.1 0.26-0.21 0.52-0.31 0.77-1.32 3.24-2.42 6.63-3.35 10.04-0.98 3.57-1.88 8.3 0.9 11.53 0.97 1.14 3.74 1.38 4.99 1.2 1.97-0.28 3.76-1.43 5.26-2.66 3.18-2.6 5.05-6.15 6.65-9.96 0.91-2.18 1.72-4.4 2.64-6.58 1.29-3.06 2.76-6.02 4.37-8.89 2.29-4.11 3.92-9.77-0.74-13.57-1.47-1.2-4.46-1.63-6.14-1.18-2.32 0.63-4.03 2.66-5.47 4.49-3.52 4.46-6.55 9.5-8.8 14.81" fill="#fff"/></g>
  <g id="change2_39"><path d="m219.95 136.12l-1.38-0.57c-0.11 0.26-0.21 0.52-0.32 0.78-1.34 3.31-2.46 6.76-3.41 10.21-0.5 1.83-1 4.02-1.01 6.28 0 1.13 0.13 2.29 0.47 3.41 0.35 1.13 0.91 2.23 1.75 3.21 0.37 0.43 0.81 0.72 1.24 0.94 0.67 0.34 1.36 0.53 2.05 0.66 0.69 0.12 1.37 0.17 1.97 0.17 0.39 0 0.74-0.02 1.07-0.06l0.01-0.01c2.42-0.35 4.4-1.68 6-2.98 3.48-2.85 5.45-6.67 7.08-10.54 0.92-2.22 1.74-4.44 2.64-6.58 1.26-2.99 2.71-5.9 4.3-8.74 1.28-2.31 2.43-5.12 2.43-8.08 0.01-1.3-0.23-2.63-0.8-3.9s-1.47-2.46-2.73-3.48c-0.78-0.63-1.7-1.03-2.66-1.3-0.95-0.26-1.95-0.4-2.9-0.4-0.66 0-1.31 0.07-1.92 0.24-1.47 0.39-2.67 1.21-3.69 2.13-1 0.92-1.84 1.94-2.57 2.88v-0.01c-3.59 4.56-6.7 9.72-9 15.16v0.01l1.38 0.57 1.39 0.59c2.18-5.18 5.15-10.11 8.59-14.47 0.7-0.9 1.45-1.8 2.23-2.51 0.79-0.72 1.6-1.23 2.45-1.46h0.01c0.26-0.07 0.67-0.13 1.13-0.13 0.66 0 1.43 0.11 2.1 0.29 0.67 0.19 1.26 0.47 1.57 0.73h-0.01c0.93 0.76 1.52 1.55 1.89 2.39 0.38 0.83 0.54 1.72 0.54 2.67 0.02 2.14-0.9 4.57-2.05 6.62-1.63 2.91-3.13 5.92-4.45 9.04-0.93 2.22-1.74 4.44-2.64 6.58-1.56 3.74-3.34 7.04-6.21 9.38-1.41 1.16-2.99 2.13-4.52 2.34l0.01-0.01c-0.16 0.03-0.4 0.04-0.67 0.04-0.57 0-1.31-0.07-1.9-0.23-0.3-0.08-0.57-0.18-0.76-0.27-0.19-0.1-0.29-0.19-0.32-0.22-0.55-0.65-0.92-1.35-1.15-2.13-0.24-0.78-0.35-1.64-0.35-2.54 0-1.8 0.43-3.76 0.91-5.5 0.92-3.36 2-6.69 3.29-9.86 0.1-0.26 0.2-0.51 0.31-0.76v0.01l-1.39-0.59" fill="#231f1f"/></g>
  <g id="change1_40"><path d="m127.81 104.55c-0.25 0.22-0.51 0.45-0.76 0.68-3.21 2.88-6.26 6.04-9.12 9.29-3 3.42-6.54 8.13-5.13 13.09 0.49 1.74 3.48 3.42 4.99 3.85 2.37 0.7 4.99 0.36 7.35-0.22 4.96-1.23 8.96-4.17 12.79-7.54 2.19-1.91 4.3-3.93 6.48-5.85 3.08-2.7 6.32-5.18 9.66-7.51 4.78-3.34 9.63-8.72 6.41-15.25-1.02-2.07-4.17-4.051-6.3-4.414-2.95-0.496-5.97 0.855-8.56 2.129-6.33 3.09-12.44 7.066-17.81 11.745" fill="#fff"/></g>
  <g id="change2_40"><path d="m127.81 104.55l-0.97-1.14c-0.27 0.24-0.54 0.47-0.78 0.69l-0.01 0.01c-3.26 2.93-6.35 6.13-9.25 9.42-1.29 1.48-2.72 3.22-3.85 5.19-1.12 1.96-1.97 4.18-1.97 6.6 0 0.88 0.12 1.79 0.38 2.7 0.22 0.76 0.64 1.36 1.11 1.88 0.71 0.78 1.58 1.4 2.45 1.91 0.87 0.5 1.71 0.88 2.45 1.1l-0.01-0.01c1.11 0.33 2.23 0.46 3.33 0.46 1.68 0 3.31-0.3 4.81-0.66 5.33-1.33 9.53-4.46 13.42-7.87 2.22-1.95 4.33-3.97 6.48-5.86 3.03-2.65 6.23-5.1 9.53-7.41 1.94-1.35 3.91-3.03 5.45-5.07 1.53-2.02 2.64-4.45 2.64-7.178 0-1.578-0.38-3.234-1.2-4.886-0.7-1.403-1.91-2.52-3.23-3.426-1.34-0.895-2.78-1.559-4.16-1.805-0.52-0.086-1.03-0.129-1.53-0.125-2.99 0.016-5.69 1.293-7.95 2.391l0.01-0.004c-6.44 3.145-12.66 7.188-18.13 11.973l0.98 1.12-0.97-1.14 0.97 1.14 0.99 1.13c5.25-4.59 11.26-8.496 17.47-11.528h0.01c2.18-1.086 4.54-2.097 6.62-2.082 0.35 0 0.69 0.028 1.03 0.082 0.75 0.121 1.95 0.629 2.98 1.332 1.03 0.692 1.91 1.602 2.22 2.27 0.63 1.281 0.89 2.453 0.89 3.558 0 1.898-0.77 3.688-2.04 5.378-1.26 1.67-3 3.19-4.77 4.42-3.37 2.35-6.66 4.87-9.78 7.61-2.23 1.94-4.34 3.97-6.49 5.86-3.77 3.31-7.58 6.07-12.17 7.2-1.34 0.34-2.75 0.58-4.08 0.58-0.87 0-1.71-0.11-2.48-0.33l-0.01-0.01c-0.53-0.14-1.59-0.63-2.43-1.23-0.43-0.29-0.82-0.62-1.09-0.91-0.27-0.3-0.41-0.56-0.43-0.67v-0.01c-0.19-0.63-0.27-1.26-0.27-1.88 0-1.7 0.61-3.43 1.58-5.11 0.96-1.68 2.26-3.29 3.5-4.7 2.82-3.22 5.83-6.33 8.99-9.17l-1-1.11 0.99 1.12c0.26-0.23 0.51-0.45 0.75-0.65l0.01-0.02-0.99-1.13" fill="#231f1f"/></g>
 </g>
</svg>