<svg xmlns="http://www.w3.org/2000/svg" xmlns:xlink="http://www.w3.org/1999/xlink" version="1.1" x="0px" y="0px" viewBox="0 0 100 100" style="enable-background:new 0 0 100 100;" xml:space="preserve"><g><g><path d="M71.1,27c-0.9,1.3-2.2,2.3-3.7,3c-0.2,0.1-0.5,0.1-0.8,0c-0.1,0-0.2,0-0.4-0.1c-0.4-0.1-0.5-0.6-0.6-0.9    c-0.1-0.4-0.1-0.8-0.2-1.2c-0.6-2.2-2.5-3.8-4.9-4.4c-0.9-0.2-1.8-0.2-2.6-0.1c-0.5,0-1.1-0.2-1.2-0.6c-0.2-0.4-0.1-0.9,0.3-1.3    c1-0.7,2.2-1.2,3.5-1.5c1.3-0.2,2.8-0.3,4,0.1c3.2,0.8,5.8,3,6.6,6c0.1,0.1,0.1,0.2,0.1,0.3C71.3,26.5,71.2,26.7,71.1,27z"></path></g><g><path d="M51.1,21.3c-0.2,0.6-0.8,1-1.4,0.8l0,0c-0.3,0-0.5-0.4-0.6-0.6c-0.3-0.5-0.8-1-1.3-1.5c-0.8-0.7-1.9-1.2-3-1.6    c-2.6-0.7-5.3-0.1-7.3,1.4c-0.3,0.3-0.6,0.3-1,0.2c-0.2,0-0.4-0.1-0.5-0.3c-1-0.8-1.7-1.7-2.3-2.8c-0.2-0.3-0.1-0.8,0.1-1.1    c2.5-2.6,6.5-3.6,10.3-2.6c2.7,0.7,5,2.4,6.3,4.8c0.4,0.8,0.7,1.6,0.9,2.4C51.2,20.8,51.3,21.1,51.1,21.3z"></path></g><g><path d="M55.3,20.2c-0.3,0.3-0.8,0.4-1.1,0.3c-0.1,0-0.3,0-0.4-0.1c-0.5-0.3-0.7-0.9-0.4-1.3c0.8-1.5,0.9-3.3,0.4-4.9    c-0.8-2.5-3-4.6-5.8-5.3c-0.4-0.1-0.8-0.4-0.8-0.8c-0.1-0.4,0.1-0.8,0.3-1c1.1-0.8,2.3-1.4,3.7-1.8c0.3-0.1,0.6,0,0.9,0.1    c2.8,1.2,4.7,3.5,5.6,6.1C58.7,14.6,57.8,17.8,55.3,20.2z"></path></g><polygon points="57.6,78.8 58.1,83.8 53.8,81.1 49.1,83 50.4,78.2 47.1,74.3 52.2,74.1 54.9,69.7 56.6,74.5 61.5,75.6  "></polygon><path d="M54.4,24.6c-0.2-0.2-0.1-0.5-0.3-0.7c-0.2-0.2-0.5-0.4-0.9-0.4s-0.7,0-0.9,0.3c-0.1,0.2-0.2,0.4-0.4,0.6   c-6.7,11-34.4,57-34.4,57.6c-0.3,7,14.3,11.2,26.9,12.8c6.8,0.8,13.4,0.9,18.5,0.3c6.5-0.9,10-3,10.7-6.1   C74,88.1,58.2,36.8,54.4,24.6z M45.5,87.1c-11.6-1.4-18.4-4.5-20.1-6c0.4-0.7,2.4-4,5.2-8.6l1.9,1.2l0,7.2l5.7-4.4l6.9,2.2   l-2.4-6.7l4.2-5.8l-7.2,0.2l-2.9-4c6.1-10.4,13-22,14.9-25.1c0.6,1.8,1.9,6.1,3.4,11.3l-2.5,2.3l-5.8-1.3l2.5,5.4l-3,5.1l5.9-0.7   l3.9,4.5l1.2-5.8l0.7-0.3c4,12.9,8.2,27,8.6,28.5C64.4,87.2,57.1,88.6,45.5,87.1z"></path></g></svg>